<svg xmlns="http://www.w3.org/2000/svg" xmlns:svg="http://www.w3.org/2000/svg" xmlns:xlink="http://www.w3.org/1999/xlink" id="svg2" width="32" height="32" version="1.1"><defs id="defs4"><linearGradient id="linearGradient4141"><stop id="stop4143" offset="0" style="stop-color:#426396;stop-opacity:1"/><stop id="stop4145" offset="1" style="stop-color:#5e96c3;stop-opacity:1"/></linearGradient><linearGradient id="linearGradient4294"><stop style="stop-color:#4581e3;stop-opacity:1" id="stop4296" offset="0"/><stop style="stop-color:#94bcdc;stop-opacity:1" id="stop4298" offset="1"/></linearGradient><linearGradient id="linearGradient4300" x1="26.98" x2="15.101" y1="1035.384" y2="1024.985" gradientTransform="matrix(1.2343218,0,0,1.186121,-3.6660306,-193.30477)" gradientUnits="userSpaceOnUse" xlink:href="#linearGradient4141"/><linearGradient id="linearGradient4302" x1="17.447" x2="5.756" y1="1045.227" y2="1034.076" gradientTransform="matrix(1.2343218,0,0,1.186121,-3.6660306,-193.30477)" gradientUnits="userSpaceOnUse" xlink:href="#linearGradient4141"/></defs><metadata id="metadata7"/><g id="layer1" transform="translate(0,-1020.3622)"><path style="fill:url(#linearGradient4302);fill-opacity:1;stroke:none" id="path3772" d="m 13.909329,1035.0351 c -2.653276,2.3783 -6.5579404,5.912 -7.7430003,7.6013 -1.0444529,1.4886 2.0949947,4.5745 3.6677369,3.1499 1.3007544,-1.1782 3.8035824,-3.287 3.8035824,-3.287 0,0 1.659646,0.6019 2.52734,0.7168 0.803468,0.107 2.430894,-0.032 2.430894,-0.032 0,0 -3.898658,5.1603 -6.724185,6.2999 -6.4663518,2.6829 -11.90684655,-2.9157 -9.5089477,-8.6968 0.7909199,-1.728 6.9272438,-7.378 8.6259757,-8.8339 1.29665,-1.1114 4.498498,-1.3645 6.112895,-0.8219 0.623536,0.2098 3.10179,0.878 2.581,3.3556 -3.600903,2.7658 -1.809182,-0.4693 -5.773291,0.5479 z"/><path id="path3774" d="m 18.701169,1037.3691 c 2.653255,-2.3784 6.558003,-5.9119 7.743033,-7.6011 1.044409,-1.4888 -2.095,-4.5747 -3.667741,-3.1502 -1.300716,1.1783 -3.803593,3.2871 -3.803593,3.2871 0,0 -1.659691,-0.6019 -2.527378,-0.7168 -0.803391,-0.1059 -2.430888,0.032 -2.430888,0.032 0,0 3.898678,-5.1605 6.724212,-6.3003 6.466387,-2.6829 11.906905,2.9159 9.508979,8.697 -0.790924,1.7277 -6.92728,7.378 -8.626005,8.8338 -1.296597,1.1113 -4.498456,1.3647 -6.112831,0.8217 -0.623631,-0.2095 -3.101895,-0.878 -2.581046,-3.3553 3.600847,-2.7658 1.809204,0.4692 5.773258,-0.548 z" style="fill:url(#linearGradient4300);fill-opacity:1;stroke:none"/></g></svg>