<svg xmlns="http://www.w3.org/2000/svg" xmlns:svg="http://www.w3.org/2000/svg" xmlns:xlink="http://www.w3.org/1999/xlink" id="svg2" width="32" height="32" version="1.1"><defs id="defs4"><linearGradient id="linearGradient4796"><stop style="stop-color:#e97f17;stop-opacity:1" id="stop4798" offset="0"/><stop style="stop-color:#d69028;stop-opacity:1" id="stop4800" offset="1"/></linearGradient><linearGradient id="linearGradient4790"><stop id="stop4792" offset="0" style="stop-color:#f5b548;stop-opacity:1"/><stop id="stop4794" offset="1" style="stop-color:#f5d2a0;stop-opacity:1"/></linearGradient><linearGradient id="linearGradient4304"><stop style="stop-color:#f7c56f;stop-opacity:1" id="stop4306" offset="0"/><stop style="stop-color:#fff2df;stop-opacity:1" id="stop4308" offset="1"/></linearGradient><linearGradient id="linearGradient4310" x1="26.415" x2="12.846" y1="1038.367" y2="1024.272" gradientTransform="matrix(1.1997061,0,0,1.1488967,-3.3252106,-153.52335)" gradientUnits="userSpaceOnUse" xlink:href="#linearGradient4796"/><linearGradient id="linearGradient4312" x1="16.946" x2="5.757" y1="1046.034" y2="1034.444" gradientTransform="matrix(1.1997061,0,0,1.1488967,-3.3252106,-153.52335)" gradientUnits="userSpaceOnUse" xlink:href="#linearGradient4796"/></defs><metadata id="metadata7"/><g id="layer1" transform="translate(0,-1020.3622)"><path style="fill:url(#linearGradient4312);fill-opacity:1;stroke:none" id="path3772" d="m 11.577704,1036.8431 c -2.4231219,2.4085 -3.3001469,2.9715 -5.346297,5.7793 -1.0150953,1.442 2.0362412,4.431 3.5648774,3.0511 1.2642756,-1.1412 5.6509966,-5.1271 5.6509966,-5.1271 l 3.015414,3.0384 c 0,0 -3.939637,4.5667 -6.685923,5.6705 -6.2850078,2.5986 -11.5729271,-2.8243 -9.2422761,-8.4239 0.7687392,-1.6738 4.3279481,-5.2031 5.97904,-6.6133 z"/><path id="path3774" d="m 20.068172,1036.5848 c 2.578846,-2.3037 4.720632,-4.7907 5.872429,-6.4268 1.01512,-1.4421 -2.036248,-4.4312 -3.564882,-3.0514 -1.264239,1.1413 -6.402579,5.8469 -6.402579,5.8469 -2.91e-4,0.096 -3.015443,-3.0383 -3.015443,-3.0383 0,0 4.691225,-5.2864 7.43752,-6.3904 6.285041,-2.5988 11.572984,2.8243 9.242305,8.424 -0.768742,1.6736 -5.305025,5.707 -6.956111,7.1171 z" style="fill:url(#linearGradient4310);fill-opacity:1;stroke:none"/></g></svg>