<svg xmlns="http://www.w3.org/2000/svg" xmlns:svg="http://www.w3.org/2000/svg" xmlns:xlink="http://www.w3.org/1999/xlink" id="svg2" width="32" height="32" version="1.1"><defs id="defs4"><linearGradient id="linearGradient3795"><stop id="stop3797" offset="0" style="stop-color:#c53143;stop-opacity:1"/><stop id="stop3799" offset="1" style="stop-color:#b8382b;stop-opacity:0"/></linearGradient><linearGradient id="linearGradient3728"><stop id="stop3730" offset="0" style="stop-color:#fa0c1e;stop-opacity:1"/><stop id="stop3732" offset="1" style="stop-color:#d9afb1;stop-opacity:0"/></linearGradient><linearGradient id="linearGradient3614"><stop id="stop3616" offset="0" style="stop-color:#e8220f;stop-opacity:1"/><stop id="stop3618" offset="1" style="stop-color:#ececec;stop-opacity:1"/></linearGradient><linearGradient id="linearGradient3602"><stop id="stop3604" offset="0" style="stop-color:#932626;stop-opacity:1"/><stop id="stop3606" offset="1" style="stop-color:#bc4343;stop-opacity:1"/></linearGradient><linearGradient id="linearGradient3691" x1="15.413" x2="15.413" y1="12.897" y2="31.086" gradientUnits="userSpaceOnUse" xlink:href="#linearGradient3614"/><linearGradient id="linearGradient3693" x1="15.413" x2="15.413" y1="2.234" y2="31.086" gradientUnits="userSpaceOnUse" xlink:href="#linearGradient3602"/><linearGradient id="linearGradient3710" x1="15.413" x2="15.941" y1="3.48" y2="18.884" gradientTransform="matrix(1.0688752,0,0,-1.1672542,-0.7930209,35.114)" gradientUnits="userSpaceOnUse" xlink:href="#linearGradient3728"/><linearGradient id="linearGradient3720" x1="24.437" x2="15.941" y1="3.485" y2="18.884" gradientTransform="matrix(1.0688752,0,0,-1.1672542,-0.7930209,35.114)" gradientUnits="userSpaceOnUse" xlink:href="#linearGradient3795"/></defs><metadata id="metadata7"/><g style="display:inline" id="layer3"><path id="path2820" d="m 29.173333,16.559999 a 13.76,12.613334 0 1 1 -27.5200003,0 13.76,12.613334 0 1 1 27.5200003,0 z" transform="matrix(1.0537791,0,0,-1.1495772,-0.30224808,35.097001)" style="fill:url(#linearGradient3691);fill-opacity:1;fill-rule:evenodd;stroke:url(#linearGradient3693);stroke-width:.90856528;stroke-linecap:butt;stroke-linejoin:miter;stroke-miterlimit:4;stroke-opacity:1;stroke-dasharray:none;stroke-dashoffset:0"/><path id="path3695" d="M 28.894346,9.3702377 C 27.010842,13.07042 22.728069,16.870583 17.080503,19.355951 11.585061,21.774374 6.0764534,22.392799 2.1004164,21.400807 c 2.2087693,5.337492 7.4536969,9.09961 13.5842156,9.09961 8.12285,0 14.707722,-6.591694 14.707722,-14.722963 0,-2.303016 -0.556212,-4.465993 -1.498008,-6.4072163 z" style="fill:url(#linearGradient3710);fill-opacity:1;fill-rule:evenodd;stroke:url(#linearGradient3720);stroke-width:1;stroke-linecap:butt;stroke-linejoin:miter;stroke-miterlimit:4;stroke-opacity:1;stroke-dasharray:none;stroke-dashoffset:0"/></g><g style="display:inline" id="layer2"><rect id="rect3809" width="1.415" height="17.97" x="-.801" y="13.518" ry=".112" transform="matrix(0.69887353,-0.71524526,0.71524526,0.69887353,0,0)" style="fill:#fff;fill-opacity:1;stroke:#fffcfc;stroke-width:3.33834791;stroke-miterlimit:4;stroke-opacity:1;stroke-dasharray:none"/><rect style="fill:#fff;fill-opacity:1;stroke:#fffcfc;stroke-width:3.33397388;stroke-miterlimit:4;stroke-opacity:1;stroke-dasharray:none" id="rect3811" width="1.419" height="17.867" x="-23.505" y="-9.107" ry=".112" transform="matrix(-0.71524526,-0.69887353,0.69887353,-0.71524526,0,0)"/></g><g style="display:inline" id="layer4"><path id="path3786" d="m 30.186666,17.973333 a 13.973333,13.706667 0 1 1 -27.9466662,0 13.973333,13.706667 0 1 1 27.9466662,0 z" transform="matrix(1.0376908,0,0,1.0578794,-0.937761,-2.9536141)" style="fill:none;stroke:#b72f3d;stroke-width:1.24076998;stroke-linecap:butt;stroke-linejoin:miter;stroke-miterlimit:4;stroke-opacity:1;stroke-dasharray:none;stroke-dashoffset:0"/></g></svg>