<svg xmlns="http://www.w3.org/2000/svg" xmlns:svg="http://www.w3.org/2000/svg" xmlns:xlink="http://www.w3.org/1999/xlink" id="svg2" width="32" height="32" version="1.1"><defs id="defs4"><linearGradient id="linearGradient6778"><stop id="stop6780" offset="0" style="stop-color:#eff4fa;stop-opacity:1"/><stop id="stop6782" offset="1" style="stop-color:#79a0e6;stop-opacity:1"/></linearGradient><linearGradient id="linearGradient6752"><stop style="stop-color:#f7e3a7;stop-opacity:1" id="stop6754" offset="0"/><stop style="stop-color:#ffd350;stop-opacity:1" id="stop6756" offset="1"/></linearGradient><linearGradient id="linearGradient3786"><stop id="stop3788" offset="0" style="stop-color:#fff;stop-opacity:1"/><stop id="stop3790" offset="1" style="stop-color:#ddeaef;stop-opacity:1"/></linearGradient><linearGradient id="linearGradient3992" x1=".205" x2="31.669" y1="14.204" y2="24.875" gradientTransform="matrix(0.94114523,0,0,-1.136745,0.81694213,91.926371)" gradientUnits="userSpaceOnUse" xlink:href="#linearGradient3786"/><linearGradient id="linearGradient6776" x1=".3" x2="31.7" y1="27.013" y2="27.013" gradientTransform="translate(-11.2,13.493333)" gradientUnits="userSpaceOnUse" xlink:href="#linearGradient6752"/></defs><metadata id="metadata7"/><g id="layer3" style="display:inline"><path id="path4178" d="m 2.8272661,1.2334602 0.017982,9.7265918 0.016686,9.020598 15.8082979,0 -0.08952,-14.2908354 -4.835772,-0.010673 -0.0151,-4.4363468 c -3.181695,0 -10.9025899,-0.00935 -10.9025834,-0.00935 z" style="fill:#fff;fill-opacity:1;stroke:#4d4d4d;stroke-width:1.5;stroke-linecap:butt;stroke-linejoin:round;stroke-miterlimit:4;stroke-dasharray:none;stroke-opacity:1"/><path style="fill:#f9f9f9;fill-opacity:1;stroke:#4d4d4d;stroke-width:1.5;stroke-linecap:butt;stroke-linejoin:round;stroke-miterlimit:4;stroke-dasharray:none;stroke-opacity:1" id="path4182" d="m 2.8272661,1.2334602 0.017982,9.7265918 0.016686,9.020598 15.8082979,0 -0.08952,-14.2908354 -4.835772,-0.010673 -0.0151,-4.4363468 c -3.181695,0 -10.9025899,-0.00935 -10.9025834,-0.00935 z"/><path style="fill:#f9f9f9;fill-opacity:1;stroke:#4d4d4d;stroke-width:1.5;stroke-linecap:butt;stroke-linejoin:round;stroke-miterlimit:4;stroke-dasharray:none;stroke-opacity:1" id="path4190" d="m 13.973932,11.63346 0.01798,9.726592 0.01669,9.020598 15.808298,0 -0.08952,-14.290836 -4.835772,-0.01067 -0.0151,-4.436347 c -3.181695,0 -10.90259,-0.0093 -10.902583,-0.0093 z"/><path id="path4192" d="m 13.973932,11.63346 0.01798,9.726592 0.01669,9.020598 15.808298,0 -0.08952,-14.290836 -4.835772,-0.01067 -0.0151,-4.436347 c -3.181695,0 -10.90259,-0.0093 -10.902583,-0.0093 z" style="fill:#f9f9f9;fill-opacity:1;stroke:#4d4d4d;stroke-width:1.5;stroke-linecap:butt;stroke-linejoin:round;stroke-miterlimit:4;stroke-dasharray:none;stroke-opacity:1"/></g><g id="layer4" style="display:inline"><path style="fill:#f9f9f9;fill-opacity:1;stroke:#4d4d4d;stroke-width:1.5;stroke-linecap:butt;stroke-linejoin:round;stroke-miterlimit:4;stroke-dasharray:none;stroke-opacity:1" id="path4180" d="m 18.52435,5.7551415 -4.771392,-4.5078108 -10e-7,4.4739807 z"/><path id="path4194" d="m 29.671016,16.155141 -4.771392,-4.507811 -1e-6,4.473981 z" style="fill:#f9f9f9;fill-opacity:1;stroke:#4d4d4d;stroke-width:1.5;stroke-linecap:butt;stroke-linejoin:round;stroke-miterlimit:4;stroke-dasharray:none;stroke-opacity:1"/></g></svg>