<svg xmlns="http://www.w3.org/2000/svg" xmlns:svg="http://www.w3.org/2000/svg" xmlns:xlink="http://www.w3.org/1999/xlink" id="svg1455" width="32" height="32" version="1.1" style="display:inline"><defs id="defs3"><linearGradient id="linearGradient3710-9"><stop id="stop3712-2" offset="0" style="stop-color:#f8f8f8;stop-opacity:1"/><stop id="stop3714-2" offset="1" style="stop-color:#fff;stop-opacity:1"/></linearGradient><linearGradient id="linearGradient3110" x1="4.52" x2="23.486" y1="30.519" y2="6.144" gradientTransform="matrix(-0.98592882,0,0,1.0377787,26.182921,-0.80161551)" gradientUnits="userSpaceOnUse" xlink:href="#linearGradient3710-9"/><linearGradient id="linearGradient3869-6"><stop style="stop-color:#ffad02;stop-opacity:1" id="stop3871-9" offset="0"/><stop style="stop-color:#c4ba4a;stop-opacity:1" id="stop3873-2" offset="1"/></linearGradient><linearGradient id="linearGradient3829"><stop style="stop-color:#786535;stop-opacity:1" id="stop3831" offset="0"/><stop style="stop-color:#cd6938;stop-opacity:1" id="stop3833" offset="1"/></linearGradient><linearGradient id="linearGradient3821"><stop style="stop-color:#050505;stop-opacity:1" id="stop3823" offset="0"/><stop style="stop-color:#949494;stop-opacity:1" id="stop3825" offset="1"/></linearGradient></defs><metadata id="metadata7"/><g id="layer2" style="display:inline"><path style="fill:url(#linearGradient3110);fill-opacity:1;stroke:#080808;stroke-width:.98463219;stroke-linecap:butt;stroke-linejoin:miter;stroke-miterlimit:4;stroke-opacity:1;stroke-dasharray:none;display:inline" id="path3698-4" d="m 21.253277,1.2739421 0,29.0578059 -20.70450264,0 0,-20.7555762 L 8.1592575,9.6507978 8.0883734,1.34857 21.253289,1.273948 z"/></g><g id="layer1" transform="translate(0,-16)" style="display:inline"><path style="fill:none;stroke:#050505;stroke-width:.99999994px;stroke-linecap:butt;stroke-linejoin:miter;stroke-opacity:1;display:inline" id="path3783-4" d="M 8.0539195,17.281032 0.38674725,25.444727"/></g><g id="layer6" style="display:inline"><g id="g4016" transform="matrix(1.2554203,0.65436333,-0.62104373,1.1937046,2.3055751,-12.772196)"><path id="path3867" d="m 19.95225,1.2258817 -3.608012,9.2046493 -2.929228,7.080264 0.01931,6.518218 4.765365,-4.084175 0.08712,-0.121054 6.437702,-16.5454579 c 0,0 -1.012465,-1.8189901 -1.876445,-2.1984961 C 21.956555,0.68823257 19.95225,1.2258817 19.95225,1.2258817 z" style="fill:#ff9b4a;fill-opacity:1;stroke:#422a03;stroke-width:.72452557;stroke-linecap:butt;stroke-linejoin:miter;stroke-miterlimit:4;stroke-opacity:1;stroke-dasharray:none;display:inline"/><path id="path3883" d="m 13.411155,17.965844 0.06031,3.786825 -0.0023,0.03023 -0.207774,2.701631 4.593269,-4.316752 -2.020605,-1.52742 z" style="fill:#f4eed7;fill-opacity:1;stroke:#4c5254;stroke-width:.72452557;stroke-miterlimit:4;stroke-opacity:1;stroke-dasharray:none;display:inline"/><path id="path3887" d="m 13.131424,20.803292 -0.204108,4.401903 2.989147,-2.702438 -1.288792,-1.112428 z" style="fill:#1a1a1a;fill-opacity:1;stroke:none;display:inline"/><path style="fill:#241d16;fill-opacity:1;stroke:none" id="path6691" d="m 9.9310345,18.568371 1.1414975,0.989299 0.761,1.674197 L 30.592152,5.174792 29.945303,3.6147443 29.032104,2.9678954 z" transform="matrix(0.62662013,-0.34349975,0.32600905,0.65901701,2.7191317,9.2090589)"/></g></g></svg>