<svg xmlns="http://www.w3.org/2000/svg" xmlns:svg="http://www.w3.org/2000/svg" xmlns:xlink="http://www.w3.org/1999/xlink" id="svg2" width="32" height="32" version="1.1"><defs id="defs4"><linearGradient id="linearGradient3831"><stop id="stop3833" offset="0" style="stop-color:#f8f4f4;stop-opacity:1"/><stop id="stop3835" offset="1" style="stop-color:#d40000;stop-opacity:.30357143"/></linearGradient><linearGradient id="linearGradient3819"><stop id="stop3821" offset="0" style="stop-color:#edcdc9;stop-opacity:1"/><stop id="stop3823" offset="1" style="stop-color:#c91b0b;stop-opacity:.99215686"/></linearGradient><linearGradient id="linearGradient3783"><stop style="stop-color:#fff;stop-opacity:1" id="stop3785" offset="0"/><stop style="stop-color:#d40000;stop-opacity:1" id="stop3787" offset="1"/></linearGradient><linearGradient id="linearGradient3674"><stop style="stop-color:#f0c7c1;stop-opacity:1" id="stop3676" offset="0"/><stop style="stop-color:#de1a08;stop-opacity:.99215686" id="stop3678" offset="1"/></linearGradient><linearGradient id="linearGradient3789" x1="-4.819" x2="-4.548" y1="4.204" y2="39.719" gradientUnits="userSpaceOnUse" xlink:href="#linearGradient3783"/><linearGradient id="linearGradient3806" x1="-4.752" x2="-8.272" y1="1.321" y2="7.349" gradientUnits="userSpaceOnUse" xlink:href="#linearGradient3674"/><linearGradient id="linearGradient3808" x1="-4.087" x2="-8.272" y1="33.625" y2="7.349" gradientUnits="userSpaceOnUse" xlink:href="#linearGradient3783"/><linearGradient id="linearGradient3814" x1="-4.819" x2="-4.548" y1="4.204" y2="39.719" gradientTransform="matrix(0.93075485,0,0,0.94458483,20.730415,-1.9099)" gradientUnits="userSpaceOnUse" xlink:href="#linearGradient3783"/><linearGradient id="linearGradient3816" x1="-4.752" x2="-4.548" y1="1.321" y2="39.719" gradientTransform="matrix(0.93075485,0,0,0.94458483,20.730415,-1.9099)" gradientUnits="userSpaceOnUse" xlink:href="#linearGradient3674"/><linearGradient id="linearGradient3829" x1="-5.284" x2="-5.014" y1="4.138" y2="14.164" gradientTransform="matrix(0.56279655,-0.71788239,0.73596717,0.56540236,5.2720134,1022.061)" gradientUnits="userSpaceOnUse" xlink:href="#linearGradient3831"/></defs><metadata id="metadata7"/><g id="layer1" transform="translate(0,-1020.3622)"><path style="fill:url(#linearGradient3808);fill-opacity:1;stroke:url(#linearGradient3806);stroke-opacity:1" id="path3011" d="m 10.646035,18.816248 a 15.628627,15.288201 0 1 1 -31.257254,0 15.628627,15.288201 0 1 1 31.257254,0 z" transform="matrix(0.73907864,-0.56574495,0.57415129,0.75006053,8.9719977,1019.2936)"/><path style="fill:url(#linearGradient3829);fill-opacity:1;stroke:none" id="path3810" d="m 5.0764601,1027.6409 c -4.85771212,6.1963 -3.7707131,15.0997 2.4434244,19.8738 1.8564653,1.4262 3.9729615,2.2775 6.1389485,2.6693 -3.60634,-3.802 -3.383933,-10.6125 0.764022,-15.9036 3.823852,-4.8775 9.737043,-6.8773 14.253388,-5.1927 -0.88861,-1.5138 -2.083151,-2.8749 -3.564304,-4.0127 -6.214137,-4.7741 -15.1777072,-3.6306 -20.0354789,2.5659 z"/><rect style="fill:#fff;fill-opacity:1;stroke:none" id="rect3013" width="19.683" height="6.19" x="6.747" y="1032.958"/></g></svg>