<svg xmlns="http://www.w3.org/2000/svg" xmlns:svg="http://www.w3.org/2000/svg" id="svg2" width="32" height="32" version="1.1"><defs id="defs4"><linearGradient id="linearGradient3757"><stop style="stop-color:#fdfb72;stop-opacity:1" id="stop3759" offset="0"/><stop style="stop-color:#ffb41b;stop-opacity:1" id="stop3761" offset="1"/></linearGradient></defs><metadata id="metadata7"/><g id="layer1" transform="translate(0,-1020.3622)"><path style="fill:none;fill-opacity:1;fill-rule:evenodd;stroke:#a7723a;stroke-width:.94637238999999995;stroke-linecap:butt;stroke-linejoin:round;stroke-miterlimit:4;stroke-opacity:1;stroke-dasharray:none" id="path2987" d="M 20.997045,20.992528 C 20.75931,21.308892 11.617197,19.181414 11.238826,19.297493 10.860454,19.413572 4.5202372,26.329466 4.1459842,26.201371 3.7717312,26.073276 2.9704721,16.715905 2.7432329,16.391868 2.5159936,16.067831 -6.016519,12.168242 -6.0107214,11.772479 c 0.0058,-0.395763 8.6627974,-4.0484273 8.8998098,-4.3653101 0.2370125,-0.3168827 1.3050227,-9.6358293 1.6832674,-9.7523143 0.3782446,-0.116485 6.5253462,6.9706314 6.8997352,7.0989866 0.374389,0.1283552 9.578158,-1.7229449 9.806356,-1.3995285 0.228199,0.3234163 -4.623922,8.3575493 -4.629852,8.7530543 -0.0059,0.395506 4.586185,8.568797 4.34845,8.885161 z" transform="matrix(0.99363412,0.30409271,-0.29423698,1.0269168,10.313398,1022.4196)"/></g></svg>