<svg xmlns="http://www.w3.org/2000/svg" xmlns:svg="http://www.w3.org/2000/svg" xmlns:xlink="http://www.w3.org/1999/xlink" id="svg2" width="32" height="32" version="1.0"><defs id="defs4"><linearGradient id="linearGradient12168"><stop style="stop-color:#858585;stop-opacity:1" id="stop12170" offset="0"/><stop id="stop12172" offset=".5" style="stop-color:#cbcbcb;stop-opacity:1"/><stop style="stop-color:#fff;stop-opacity:1" id="stop12174" offset="1"/></linearGradient><linearGradient id="linearGradient11450"><stop style="stop-color:#191919;stop-opacity:1" id="stop11452" offset="0"/><stop style="stop-color:#fff;stop-opacity:1" id="stop11454" offset="1"/></linearGradient><linearGradient id="linearGradient2263"><stop style="stop-color:#3e848c;stop-opacity:1" id="stop2265" offset="0"/><stop style="stop-color:#b3c7de;stop-opacity:1" id="stop2267" offset="1"/></linearGradient><linearGradient id="linearGradient7454" x1="28.674" x2="9.287" y1="2.28" y2="46.582" gradientTransform="matrix(0.9673902,0,0,-1.1589562,-0.79677103,52.162489)" gradientUnits="userSpaceOnUse" xlink:href="#linearGradient2263"/><linearGradient id="linearGradient7458" x1="13.444" x2="38.408" y1="41.398" y2="31.619" gradientTransform="matrix(1.0595231,0,0,-1.0264164,-2.3364269,49.429715)" gradientUnits="userSpaceOnUse" xlink:href="#linearGradient12168"/><linearGradient id="linearGradient11456" x1="19.785" x2="19.785" y1="29.87" y2="42.992" gradientTransform="matrix(0.903975,0,0,0.6975501,11.791609,-36.457522)" gradientUnits="userSpaceOnUse" xlink:href="#linearGradient11450"/></defs><metadata id="metadata7"/><g id="layer1" style="display:inline"><g style="display:inline" id="g7418" transform="matrix(0.75450459,0,0,0.71126951,-2.1666557,-1.4575482)"><path id="path7428" d="m 6.518876,43.354968 35.286861,0 c 0.534691,0 0.965147,-0.454103 0.965147,-1.018168 l 0,-36.1483706 c 0,-0.5640634 -0.430456,-1.0181674 -0.965147,-1.0181674 l -32.740934,0 c 0,0 -3.6085747,3.8629739 -3.6085747,3.8629739 L 5.553727,42.3368 c 0,0.564065 0.4304565,1.018168 0.965149,1.018168 z" style="fill:url(#linearGradient7454);fill-opacity:1;stroke:#25375f;stroke-width:1.09204853;stroke-linecap:round;stroke-linejoin:round;stroke-miterlimit:4;stroke-opacity:1;stroke-dasharray:none;stroke-dashoffset:0"/><path id="path7444" d="m 15.597127,17.861022 17.95215,0 c 0.807146,0 1.456942,-0.646926 1.456942,-1.450506 l 0,-11.3734517 c 0,0 -20.866034,0 -20.866034,0 l 0,11.3734517 c 0,0.80358 0.649796,1.450506 1.456942,1.450506 z" style="fill:url(#linearGradient7458);fill-opacity:1;stroke:#371d1d;stroke-width:.80249828;stroke-linecap:butt;stroke-linejoin:miter;stroke-miterlimit:4;stroke-opacity:1;stroke-dashoffset:0"/><rect id="rect7446" width="4.231" height="6.311" x="27.561" y="-14.154" rx=".632" ry=".471" transform="scale(1,-1)" style="fill:url(#linearGradient11456);fill-opacity:1;stroke:#251818;stroke-width:.65857965;stroke-linecap:butt;stroke-linejoin:miter;stroke-miterlimit:4;stroke-opacity:1;stroke-dasharray:none;stroke-dashoffset:0"/></g><g id="layer3" style="display:inline"><rect id="rect7430" width="20.56" height="12.439" x="5.778" y="-27.69" transform="scale(1,-1)" style="fill:#fff;fill-opacity:1;stroke:#371d1d;stroke-width:.63016373;stroke-linecap:butt;stroke-linejoin:miter;stroke-miterlimit:4;stroke-opacity:1;stroke-dasharray:none;stroke-dashoffset:0;display:inline"/></g><g id="layer2" style="display:inline"><rect style="fill:#ccc;fill-opacity:1;fill-rule:evenodd;stroke:#000;stroke-width:.4163833;stroke-linecap:butt;stroke-linejoin:miter;stroke-miterlimit:4;stroke-opacity:1;stroke-dasharray:none;stroke-dashoffset:0;display:inline" id="rect11357" width="15.209" height=".618" x="8.301" y="-19.846" rx=".109" ry="0" transform="scale(1,-1)"/><rect id="rect13161" width="15.222" height=".581" x="8.331" y="-24.181" rx=".109" ry="0" transform="scale(1,-1)" style="fill:#b3b3b3;fill-opacity:1;fill-rule:evenodd;stroke:#000;stroke-width:.4040966;stroke-linecap:butt;stroke-linejoin:miter;stroke-miterlimit:4;stroke-opacity:1;stroke-dasharray:none;stroke-dashoffset:0;display:inline"/></g></g></svg>