<svg xmlns="http://www.w3.org/2000/svg" xmlns:svg="http://www.w3.org/2000/svg" xmlns:xlink="http://www.w3.org/1999/xlink" id="svg2" width="32" height="32" version="1.1"><defs id="defs4"><linearGradient id="linearGradient3617"><stop style="stop-color:#fefefe;stop-opacity:1" id="stop3619" offset="0"/><stop style="stop-color:#4f93a3;stop-opacity:1" id="stop3621" offset="1"/></linearGradient><linearGradient id="linearGradient3776"><stop id="stop3778" offset="0" style="stop-color:#61728a;stop-opacity:1"/><stop id="stop3780" offset="1" style="stop-color:#b1bec2;stop-opacity:1"/></linearGradient><linearGradient id="linearGradient3717-3"><stop style="stop-color:#c1cee8;stop-opacity:1" id="stop3719-8" offset="0"/><stop style="stop-color:#fff;stop-opacity:1" id="stop3721-3" offset="1"/></linearGradient><linearGradient id="linearGradient4163" x1="3.501" x2="14.203" y1="25.363" y2="25.222" gradientTransform="matrix(2.1063298,0,0,2.1009617,-2.5166687,-33.582356)" gradientUnits="userSpaceOnUse" xlink:href="#linearGradient3617"/><linearGradient id="linearGradient4179" x1="8.812" x2="8.755" y1="16.092" y2="20.833" gradientUnits="userSpaceOnUse" xlink:href="#linearGradient3717-3"/></defs><metadata id="metadata7"/><g id="layer1"><path style="fill:url(#linearGradient4163);fill-opacity:1;stroke:none" id="path3025" d="M 12.622734,30.359114 12.582469,20.153092 1.9484444,6.8893482 c 0,0 8.2399886,2.6401469 13.0901516,2.5081665 C 19.751904,9.269251 27.300584,7.1723963 27.300584,7.1723963 l -10.409827,13.0199517 0,10.166766 c 0,0 -1.063812,0.70311 -2.174276,0.706574 -1.415968,0.0044 -2.093747,-0.706574 -2.093747,-0.706574 z"/><ellipse style="fill:url(#linearGradient4179);fill-opacity:1;stroke:#496b80;stroke-width:.25479595999999999;stroke-miterlimit:4;stroke-opacity:1;stroke-dasharray:none" id="path3795" cx="8.191" cy="19.131" d="m 14.107528,19.131386 c 0,1.078942 -2.648849,1.953597 -5.9163688,1.953597 -3.26752,0 -5.9163684,-0.874655 -5.9163684,-1.953597 0,-1.078942 2.6488484,-1.953597 5.9163684,-1.953597 3.2675198,0 5.9163688,0.874655 5.9163688,1.953597 z" rx="5.916" ry="1.954" transform="matrix(2.1063298,0,0,2.1009617,-2.5166687,-33.582356)"/></g></svg>