<svg xmlns="http://www.w3.org/2000/svg" xmlns:svg="http://www.w3.org/2000/svg" id="svg2" width="16" height="16" version="1.1"><defs id="defs4"><linearGradient id="linearGradient3617"><stop style="stop-color:#f7f6f2;stop-opacity:1" id="stop3619" offset="0"/><stop style="stop-color:#0e729a;stop-opacity:1" id="stop3621" offset="1"/></linearGradient><linearGradient id="linearGradient3776"><stop id="stop3778" offset="0" style="stop-color:#61728a;stop-opacity:1"/><stop id="stop3780" offset="1" style="stop-color:#b1bec2;stop-opacity:1"/></linearGradient><linearGradient id="linearGradient3717-3"><stop style="stop-color:#9cb1da;stop-opacity:1" id="stop3719-8" offset="0"/><stop style="stop-color:#ecf0f1;stop-opacity:1" id="stop3721-3" offset="1"/></linearGradient></defs><metadata id="metadata7"/><g id="layer1" transform="translate(0,-16)"><path style="fill:#d40000;stroke:none" id="path3025" d="M 7.1875747,30.434382 7.1684588,25.576596 2.1983274,19.672519 c 0,0 3.8335398,0.847537 6.1362007,0.784718 2.2376879,-0.06105 5.8685789,-0.728668 5.8685789,-0.728668 l -4.989248,5.866712 1e-7,4.839101 c 0,0 -0.5050549,0.334661 -1.0322581,0.33631 -0.672244,0.0021 -0.9940263,-0.33631 -0.9940263,-0.33631 z"/><path style="fill:#fff;stroke:#a00;stroke-width:.33966306;stroke-miterlimit:4;stroke-opacity:1;stroke-dasharray:none" id="path3795" d="M 9.5005975,2.7048984 A 5.1135006,0.90800476 0 0 1 4.3870969,3.6129031 5.1135006,0.90800476 0 0 1 -0.72640371,2.7048984 5.1135006,0.90800476 0 0 1 4.3870969,1.7968936 5.1135006,0.90800476 0 0 1 9.5005975,2.7048984 Z" transform="matrix(1.1570094,0,0,2.1515275,3.0770152,13.579345)"/></g></svg>