<svg xmlns="http://www.w3.org/2000/svg" xmlns:svg="http://www.w3.org/2000/svg" id="svg2" width="32" height="32" version="1.1"><defs id="defs4"><linearGradient id="linearGradient5324"><stop style="stop-color:#7cbd17;stop-opacity:1" id="stop5326" offset="0"/><stop style="stop-color:#b1e060;stop-opacity:1" id="stop5328" offset="1"/></linearGradient></defs><metadata id="metadata7"/><g id="layer2" style="display:inline"><path style="display:inline;fill:#ff7f2a;stroke:none" id="path3034" d="M 9.5125959,13.425531 C 9.6551695,12.326787 11.22128,9.3556808 12.081613,9.0309111 13.509964,8.4917197 17.771168,8.727253 17.771168,8.727253 c 0,0 1.047596,0.3833738 1.277366,0.7549341 0.215109,0.3478483 -0.147042,2.5242889 -0.147042,2.5242889 l 1.198243,-2.4199109 c 0,0 1.234814,0.4817339 1.1236,1.1779709 -0.123377,0.772373 -3.007401,6.650851 -3.007401,6.650851 0,0 3.135764,2.292876 3.214784,3.472093 0.07072,1.055443 0.329411,4.146857 0.06436,6.375626 -0.09213,0.774728 -2.356247,0.829637 -2.394698,0.05061 -0.05762,-1.16724 -0.03411,-5.494949 -0.03411,-5.494949 0,0 -2.570732,-2.06736 -5.103925,-5.01502 -1.215114,-1.413925 1.515988,-5.988601 1.515988,-5.988601 l -2.239938,-0.141508 c 0,0 -1.022904,1.992343 -1.793214,3.610152 -0.298298,0.626489 -2.0215159,-0.172883 -1.9325807,-0.85826 z"/><path style="display:inline;fill:#ff7f2a;stroke:none" id="path3958" d="m 21.781692,11.444447 -0.985071,2.378657 c 0,0 1.215022,2.329467 2.22937,2.328046 1.850932,-0.0026 3.352696,0.04186 4.095821,-0.05062 0.70808,-0.08811 0.454489,-2.086055 -0.25923,-2.074996 l -3.266287,0.05061 z"/><path style="display:inline;fill:#ff7f2a;stroke:none" id="path3960" d="m 13.330821,17.618831 -0.518458,3.947556 c 0,0 -2.671603,3.142903 -3.525517,3.846338 -0.6003225,0.494532 1.245082,1.995787 1.814604,1.467681 1.235801,-1.14593 3.933868,-3.553195 4.09582,-4.352434 0.301168,-1.486273 0.362922,-2.935363 0.362922,-2.935363 z"/><rect style="display:inline;fill:#ff7f2a;fill-opacity:1;fill-rule:evenodd;stroke:none" id="rect3964" width="6.187" height="4.734" x="12.899" y="9.078" ry=".713" transform="matrix(0.88064862,0.47376999,-0.49163615,0.87080072,0,0)"/><ellipse style="display:inline;fill:#ff7f2a;fill-opacity:1;fill-rule:evenodd;stroke:none" id="path3966" cx="20.304" cy="6.485" rx="2.1" ry="1.923"/></g><g id="layer1"><ellipse style="display:inline;fill:none;fill-opacity:1;fill-rule:evenodd;stroke:#f95;stroke-width:1.50000012;stroke-linecap:butt;stroke-linejoin:miter;stroke-miterlimit:4;stroke-dasharray:none;stroke-opacity:1" id="path3346" cx="16.11" cy="16.06" rx="15.242" ry="15.211"/></g></svg>