<svg xmlns="http://www.w3.org/2000/svg" xmlns:svg="http://www.w3.org/2000/svg" xmlns:xlink="http://www.w3.org/1999/xlink" id="svg2" width="32" height="32" version="1.0"><defs id="defs4"><linearGradient id="linearGradient12168"><stop style="stop-color:#f6e1c6;stop-opacity:1" id="stop12170" offset="0"/><stop id="stop12172" offset="1" style="stop-color:#d3c4a9;stop-opacity:1"/><stop style="stop-color:#fff9e4;stop-opacity:1" id="stop12174" offset="1"/></linearGradient><linearGradient id="linearGradient11450"><stop style="stop-color:#80796d;stop-opacity:1" id="stop11452" offset="0"/><stop style="stop-color:#fff2f2;stop-opacity:1" id="stop11454" offset="1"/></linearGradient><linearGradient id="linearGradient2263"><stop style="stop-color:#cc6523;stop-opacity:1" id="stop2265" offset="0"/><stop style="stop-color:#ffb787;stop-opacity:1" id="stop2267" offset="1"/></linearGradient><linearGradient id="linearGradient7454" x1="28.674" x2="9.287" y1="2.28" y2="46.582" gradientTransform="matrix(0.9673902,0,0,-1.1589562,-0.79677103,52.162489)" gradientUnits="userSpaceOnUse" xlink:href="#linearGradient2263"/><linearGradient id="linearGradient7458" x1="13.444" x2="38.822" y1="41.398" y2="33.987" gradientTransform="matrix(1.0595231,0,0,-1.0264164,-2.3364269,49.429715)" gradientUnits="userSpaceOnUse" xlink:href="#linearGradient12168"/><linearGradient id="linearGradient11456" x1="19.785" x2="19.785" y1="29.87" y2="42.992" gradientTransform="matrix(0.903975,0,0,0.6975501,11.791609,-36.457522)" gradientUnits="userSpaceOnUse" xlink:href="#linearGradient11450"/></defs><metadata id="metadata7"/><g id="layer1" style="display:inline"><g style="display:inline" id="g7418" transform="matrix(0.78596407,0,0,0.76130988,-2.9252556,-1.862463)"><path id="path7428" d="m 6.518876,43.354968 35.286861,0 c 0.534691,0 0.965147,-0.454103 0.965147,-1.018168 l 0,-36.1483706 c 0,-0.5640634 -0.430456,-1.0181674 -0.965147,-1.0181674 l -32.740934,0 c 0,0 -3.6085747,3.8629739 -3.6085747,3.8629739 L 5.553727,42.3368 c 0,0.564065 0.4304565,1.018168 0.965149,1.018168 z" style="fill:url(#linearGradient7454);fill-opacity:1;stroke:#2b1100;stroke-width:1.03420794;stroke-linecap:round;stroke-linejoin:round;stroke-miterlimit:4;stroke-dasharray:none;stroke-dashoffset:0;stroke-opacity:1"/><path id="path7444" d="m 15.597127,17.861022 17.95215,0 c 0.807146,0 1.456942,-0.646926 1.456942,-1.450506 l 0,-11.3734517 c 0,0 -20.866034,0 -20.866034,0 l 0,11.3734517 c 0,0.80358 0.649796,1.450506 1.456942,1.450506 z" style="fill:url(#linearGradient7458);fill-opacity:1;stroke:#28170b;stroke-width:.75999385;stroke-linecap:butt;stroke-linejoin:miter;stroke-miterlimit:4;stroke-dashoffset:0;stroke-opacity:1"/><rect id="rect7446" width="4.085" height="5.793" x="27.707" y="-13.636" rx=".632" ry=".471" transform="scale(1,-1)" style="fill:url(#linearGradient11456);fill-opacity:1;stroke:#2b1100;stroke-width:.62369788;stroke-linecap:butt;stroke-linejoin:miter;stroke-miterlimit:4;stroke-dasharray:none;stroke-dashoffset:0;stroke-opacity:1"/></g><g id="layer3" style="display:inline"><rect id="rect7430" width="21.418" height="13.315" x="5.35" y="-29.336" transform="scale(1,-1)" style="display:inline;fill:#fffbf8;fill-opacity:1;stroke:#2b1100;stroke-width:.63016373;stroke-linecap:butt;stroke-linejoin:miter;stroke-miterlimit:4;stroke-dasharray:none;stroke-dashoffset:0;stroke-opacity:1"/></g><g id="layer2" style="display:inline"><rect style="display:inline;fill:#ccc;fill-opacity:1;fill-rule:evenodd;stroke:#2b1100;stroke-width:.4163833;stroke-linecap:butt;stroke-linejoin:miter;stroke-miterlimit:4;stroke-dasharray:none;stroke-dashoffset:0;stroke-opacity:1" id="rect11357" width="15.843" height=".661" x="7.979" y="-20.94" rx=".114" ry="0" transform="scale(1,-1)"/><rect id="rect13161" width="15.857" height=".622" x="8.011" y="-25.579" rx=".114" ry="0" transform="scale(1,-1)" style="display:inline;fill:#b3b3b3;fill-opacity:1;fill-rule:evenodd;stroke:#2b1100;stroke-width:.4040966;stroke-linecap:butt;stroke-linejoin:miter;stroke-miterlimit:4;stroke-dasharray:none;stroke-dashoffset:0;stroke-opacity:1"/></g></g></svg>