<svg xmlns="http://www.w3.org/2000/svg" xmlns:svg="http://www.w3.org/2000/svg" xmlns:xlink="http://www.w3.org/1999/xlink" id="svg2" width="32" height="32" version="1.1"><defs id="defs4"><linearGradient id="linearGradient3756"><stop id="stop3758" offset="0" style="stop-color:#519aed;stop-opacity:1"/><stop id="stop3760" offset="1" style="stop-color:#e9dddd;stop-opacity:0"/></linearGradient><linearGradient id="linearGradient3720" x1="24.437" x2="15.941" y1="3.485" y2="18.884" gradientTransform="matrix(1.1632326,0,0,-1.2685615,0.58371699,39.158084)" gradientUnits="userSpaceOnUse" xlink:href="#linearGradient3756"/><linearGradient id="linearGradient4166" x1="24.437" x2="15.941" y1="3.485" y2="18.884" gradientTransform="matrix(1.0404908,0,0,-1.215256,-32.737713,39.066128)" gradientUnits="userSpaceOnUse" xlink:href="#linearGradient3756"/></defs><metadata id="metadata7"/><g id="layer3" style="display:inline"><path style="fill:none;stroke:url(#linearGradient3720);stroke-width:.84560168;stroke-linecap:butt;stroke-linejoin:miter;stroke-miterlimit:4;stroke-dasharray:none;stroke-dashoffset:0;stroke-opacity:1" id="path3695" d="m 3.7325798,24.254708 c -2.2203884,6.558804 -1.1101942,3.279402 0,0 z"/><path id="path4158" d="m -29.921112,24.789 c -1.986097,6.2832 -0.993048,3.1416 0,0 z" style="fill:none;stroke:url(#linearGradient4166);stroke-width:.8456015;stroke-linecap:butt;stroke-linejoin:miter;stroke-miterlimit:4;stroke-dasharray:none;stroke-dashoffset:0;stroke-opacity:1"/></g><g id="layer2" style="display:inline"><path style="fill:none;stroke:none" id="path3872" d="M 25.768531,5.3171056 18.715406,16.234193 28.447759,14.786608 25.768531,5.3171056 Z"/><path style="fill:none;stroke:none" id="path3844" d="M 16.078334,6.533168 C 7.7433809,6.778006 1.8015743,17.001889 8.7377039,24.808898 c 0.8456221,0.815034 4.0796791,2.909068 7.8873541,2.624421 6.38662,-0.420209 7.67009,-3.269823 7.165087,-3.379564 -1.273618,-0.276769 -1.24409,1.83421 -6.961593,2.172141 C 8.2975397,24.936923 4.9056407,15.581178 12.138094,10.435324 13.829591,9.425277 15.413405,8.7872443 17.057069,8.7046713 18.99201,8.6074693 21.0099,9.2800345 23.384044,11.021636 22.975725,8.1573513 19.868302,6.8829765 16.078334,6.533168 Z"/><path id="path4160" d="M -10.210347,6.6471668 -16.51924,17.105513 -7.813825,15.718756 -10.210347,6.6471668 Z" style="fill:none;stroke:none"/><path id="path4162" d="m -18.878056,7.8121298 c -7.455465,0.23455 -12.770305,10.0288212 -6.566061,17.5077772 0.756394,0.780786 3.649199,2.786828 7.055098,2.514141 5.712717,-0.402552 6.860758,-3.132424 6.409043,-3.237554 -1.13923,-0.265136 -1.112817,1.757137 -6.227022,2.080868 -7.630838,-1.234811 -10.664831,-10.197423 -4.19553,-15.127048 1.513013,-0.967602 2.929706,-1.5788248 4.399935,-1.6579269 1.73077,-0.093113 3.535737,0.5511839 5.659367,2.2196019 -0.365235,-2.7439249 -3.144769,-3.9647496 -6.53483,-4.2998592 z" style="fill:none;stroke:none"/><path style="opacity:1;fill:none;fill-opacity:1;fill-rule:evenodd;stroke:#c83737;stroke-width:6;stroke-linecap:butt;stroke-linejoin:miter;stroke-miterlimit:4;stroke-dasharray:none;stroke-dashoffset:0;stroke-opacity:1" id="path4168" d="M 28.30776,15.9062 A 12.171371,12.322227 0 0 1 20.794171,27.290453 12.171371,12.322227 0 0 1 7.5299294,24.61933"/><path id="path4170" d="M 24.797917,-7.3926069 A 12.189322,12.033113 0 0 1 11.514112,-4.7841561 12.189322,12.033113 0 0 1 3.9894419,-15.901303" transform="scale(1,-1)" style="opacity:1;fill:none;fill-opacity:1;fill-rule:evenodd;stroke:#e68751;stroke-width:6;stroke-linecap:butt;stroke-linejoin:miter;stroke-miterlimit:4;stroke-dasharray:none;stroke-dashoffset:0;stroke-opacity:1"/><path style="fill:none;fill-rule:evenodd;stroke:#f60;stroke-width:3;stroke-linecap:butt;stroke-linejoin:miter;stroke-miterlimit:4;stroke-dasharray:none;stroke-opacity:1" id="path4172" d="m 28.674572,-11.697841 c 2.689022,2.2617831 3.850452,3.186923 5.493333,4.533333 l -5.386667,5.4399997"/><path style="opacity:1;fill:#c83737;fill-opacity:1;fill-rule:evenodd;stroke:none;stroke-width:1.46715569;stroke-linecap:butt;stroke-linejoin:miter;stroke-miterlimit:4;stroke-dasharray:none;stroke-dashoffset:0;stroke-opacity:1" id="path4182" d="M 27.468383,-0.85524549 24.421888,-2.6147288 27.47129,-4.3722624 Z" transform="matrix(2.2080247,2.2104871,3.6009454,-3.2645636,-43.617724,-44.591438)"/><path id="path4188" d="M 27.468383,-0.85524549 24.421888,-2.6147288 27.47129,-4.3722624 Z" transform="matrix(-2.2599723,-2.1607655,-3.5224119,3.3438351,77.410093,75.587189)" style="opacity:1;fill:#e68751;fill-opacity:1;fill-rule:evenodd;stroke:none;stroke-width:1.46715569;stroke-linecap:butt;stroke-linejoin:miter;stroke-miterlimit:4;stroke-dasharray:none;stroke-dashoffset:0;stroke-opacity:1"/></g><g id="layer4" style="display:none"><path style="fill:none;stroke:#2f6ab7;stroke-width:1.24076998;stroke-linecap:butt;stroke-linejoin:miter;stroke-miterlimit:4;stroke-opacity:1;stroke-dasharray:none;stroke-dashoffset:0" id="path3786" d="m 30.186666,17.973333 a 13.973333,13.706667 0 1 1 -27.9466662,0 13.973333,13.706667 0 1 1 27.9466662,0 z" transform="matrix(1.0376908,0,0,1.0578794,-0.937761,-2.9536141)"/></g></svg>