<svg xmlns="http://www.w3.org/2000/svg" xmlns:svg="http://www.w3.org/2000/svg" xmlns:xlink="http://www.w3.org/1999/xlink" id="svg2" width="32" height="32" version="1.1"><defs id="defs4"><linearGradient id="linearGradient3756"><stop style="stop-color:#519aed;stop-opacity:1" id="stop3758" offset="0"/><stop style="stop-color:#e9dddd;stop-opacity:0" id="stop3760" offset="1"/></linearGradient><linearGradient id="linearGradient3728"><stop id="stop3730" offset="0" style="stop-color:#f1f3fb;stop-opacity:1"/><stop id="stop3732" offset="1" style="stop-color:#273df9;stop-opacity:0"/></linearGradient><linearGradient id="linearGradient3614"><stop id="stop3616" offset="0" style="stop-color:#2c71d9;stop-opacity:1"/><stop id="stop3618" offset="1" style="stop-color:#ececec;stop-opacity:1"/></linearGradient><linearGradient id="linearGradient3602"><stop id="stop3604" offset="0" style="stop-color:#f5f5f5;stop-opacity:1"/><stop id="stop3606" offset="1" style="stop-color:#141bc6;stop-opacity:1"/></linearGradient><linearGradient id="linearGradient3691" x1="15.413" x2="15.413" y1="12.897" y2="31.086" gradientUnits="userSpaceOnUse" xlink:href="#linearGradient3614"/><linearGradient id="linearGradient3693" x1="15.413" x2="15.413" y1="2.234" y2="31.086" gradientUnits="userSpaceOnUse" xlink:href="#linearGradient3602"/><linearGradient id="linearGradient3710" x1="15.413" x2="15.941" y1="3.48" y2="18.884" gradientTransform="matrix(1.0688752,0,0,-1.1672542,-0.7930209,35.114)" gradientUnits="userSpaceOnUse" xlink:href="#linearGradient3728"/><linearGradient id="linearGradient3720" x1="24.437" x2="15.941" y1="3.485" y2="18.884" gradientTransform="matrix(1.0688752,0,0,-1.1672542,-0.7930209,35.114)" gradientUnits="userSpaceOnUse" xlink:href="#linearGradient3756"/></defs><metadata id="metadata7"/><g style="display:inline" id="layer3"><path id="path2820" d="m 29.173333,16.559999 a 13.76,12.613334 0 1 1 -27.5200003,0 13.76,12.613334 0 1 1 27.5200003,0 z" transform="matrix(1.0537791,0,0,-1.1495772,-0.30224808,35.097001)" style="fill:url(#linearGradient3691);fill-opacity:1;fill-rule:evenodd;stroke:url(#linearGradient3693);stroke-width:.90856528;stroke-linecap:butt;stroke-linejoin:miter;stroke-miterlimit:4;stroke-opacity:1;stroke-dasharray:none;stroke-dashoffset:0"/><path id="path3695" d="M 28.894346,9.3702377 C 27.010842,13.07042 22.728069,16.870583 17.080503,19.355951 11.585061,21.774374 6.0764534,22.392799 2.1004164,21.400807 c 2.2087693,5.337492 7.4536969,9.09961 13.5842156,9.09961 8.12285,0 14.707722,-6.591694 14.707722,-14.722963 0,-2.303016 -0.556212,-4.465993 -1.498008,-6.4072163 z" style="fill:url(#linearGradient3710);fill-opacity:1;fill-rule:evenodd;stroke:url(#linearGradient3720);stroke-width:1;stroke-linecap:butt;stroke-linejoin:miter;stroke-miterlimit:4;stroke-opacity:1;stroke-dasharray:none;stroke-dashoffset:0"/></g><g style="display:inline" id="layer2"><text id="text3791" x="10.56" y="26.773" xml:space="preserve" style="font-size:30px;font-style:normal;font-variant:normal;font-weight:700;font-stretch:normal;fill:#fff;fill-opacity:1;stroke:none;font-family:DejaVu Serif;-inkscape-font-specification:DejaVu Serif"><tspan style="font-size:30px;font-style:normal;font-variant:normal;font-weight:700;font-stretch:normal;font-family:DejaVu Serif;-inkscape-font-specification:DejaVu Serif" id="tspan3793" x="10.56" y="26.773">i</tspan></text></g><g id="layer4"><path id="path3786" d="m 30.186666,17.973333 a 13.973333,13.706667 0 1 1 -27.9466662,0 13.973333,13.706667 0 1 1 27.9466662,0 z" transform="matrix(1.0376908,0,0,1.0578794,-0.937761,-2.9536141)" style="fill:none;stroke:#2f6ab7;stroke-width:1.24076998;stroke-linecap:butt;stroke-linejoin:miter;stroke-miterlimit:4;stroke-opacity:1;stroke-dasharray:none;stroke-dashoffset:0"/></g></svg>