<svg xmlns="http://www.w3.org/2000/svg" xmlns:svg="http://www.w3.org/2000/svg" xmlns:xlink="http://www.w3.org/1999/xlink" id="svg2" width="32" height="32" version="1.1"><defs id="defs4"><linearGradient id="linearGradient3796"><stop style="stop-color:#2ca02c;stop-opacity:1" id="stop3798" offset="0"/><stop style="stop-color:#71d771;stop-opacity:1" id="stop3800" offset="1"/></linearGradient><linearGradient id="linearGradient3782"><stop style="stop-color:navy;stop-opacity:1" id="stop3784" offset="0"/><stop style="stop-color:#578eb5;stop-opacity:.9910714" id="stop3786" offset="1"/></linearGradient><linearGradient id="linearGradient3608"><stop id="stop3610" offset="0" style="stop-color:#2eaf1d;stop-opacity:1"/><stop id="stop3612" offset="1" style="stop-color:#91ff44;stop-opacity:1"/></linearGradient><linearGradient id="linearGradient3612"><stop style="stop-color:#616161;stop-opacity:1" id="stop3614" offset="0"/><stop style="stop-color:#383838;stop-opacity:1" id="stop3616" offset="1"/></linearGradient><linearGradient id="linearGradient3601"><stop style="stop-color:#a2a2a2;stop-opacity:1" id="stop3603" offset="0"/><stop style="stop-color:#343434;stop-opacity:1" id="stop3605" offset="1"/></linearGradient><linearGradient id="linearGradient3607" x1="10.654" x2="24.085" y1="3.771" y2="29.5" gradientTransform="matrix(0.96774194,0,0,-0.96774194,0.58051457,31.158684)" gradientUnits="userSpaceOnUse" xlink:href="#linearGradient3601"/><linearGradient id="linearGradient3618" x1="3" x2="29" y1="28.806" y2="28.806" gradientUnits="userSpaceOnUse" xlink:href="#linearGradient3612"/><linearGradient id="linearGradient3620" x1="3" x2="29" y1="28.806" y2="28.806" gradientTransform="translate(0,-32.806061)" gradientUnits="userSpaceOnUse" xlink:href="#linearGradient3612"/><linearGradient id="linearGradient3606" x1="24" x2="7" y1="26" y2="8" gradientTransform="matrix(0.83718675,0,0,0.87310139,-36.94508,11.435241)" gradientUnits="userSpaceOnUse" xlink:href="#linearGradient3608"/><linearGradient id="linearGradient3757"><stop id="stop3759" offset="0" style="stop-color:#fdfb72;stop-opacity:1"/><stop id="stop3761" offset="1" style="stop-color:#ffb41b;stop-opacity:1"/></linearGradient><linearGradient id="linearGradient3845"><stop style="stop-color:#326dc2;stop-opacity:1" id="stop3847" offset="0"/><stop style="stop-color:#6295be;stop-opacity:1" id="stop3849" offset="1"/></linearGradient><linearGradient id="linearGradient3945" x1="7.5" x2="38.5" y1="19.5" y2="19.5" gradientUnits="userSpaceOnUse" xlink:href="#linearGradient3845-1"/><linearGradient id="linearGradient3845-1"><stop style="stop-color:#018049;stop-opacity:1" id="stop3847-7" offset="0"/><stop style="stop-color:#01b549;stop-opacity:1" id="stop3849-4" offset="1"/></linearGradient><linearGradient id="linearGradient3066" x1="7.5" x2="38.5" y1="19.5" y2="19.5" gradientUnits="userSpaceOnUse" xlink:href="#linearGradient3845-1"/><linearGradient id="linearGradient3808" x1="-12.356" x2="-21.346" y1="27.08" y2="14.27" gradientTransform="matrix(1.2173913,0,0,1.2185686,-9.3443756,-22.874273)" gradientUnits="userSpaceOnUse" xlink:href="#linearGradient3845-1"/><linearGradient id="linearGradient3802" x1="1.927" x2="-20.994" y1="27.256" y2="4.125" gradientUnits="userSpaceOnUse" xlink:href="#linearGradient3796"/></defs><metadata id="metadata7"/><g id="layer1" style="display:inline"><path style="fill:#3771c8;stroke:none" id="path3034" d="M 7.6619342,12.298233 C 7.8437481,10.86106 9.8408921,6.9748093 10.938011,6.5500068 12.759482,5.8447356 18.19348,6.1528173 18.19348,6.1528173 c 0,0 1.335921,0.5014586 1.62893,0.9874645 0.274312,0.4549911 -0.187512,3.3018062 -0.187512,3.3018062 L 21.16293,7.27681 c 0,0 1.574665,0.6301148 1.432842,1.5408024 -0.157333,1.0102752 -3.835116,8.6994106 -3.835116,8.6994106 0,0 3.998809,2.999115 4.099577,4.541548 0.09019,1.380535 0.420074,5.424149 0.08207,8.339411 -0.117489,1.013356 -3.004746,1.085178 -3.053781,0.0662 -0.07347,-1.526768 -0.0435,-7.187473 -0.0435,-7.187473 0,0 -3.278264,-2.704137 -6.508658,-6.55972 -1.549544,-1.849434 1.933227,-7.8331763 1.933227,-7.8331763 L 12.413164,8.6987185 c 0,0 -1.304433,2.6060125 -2.286752,4.7221305 -0.3803989,0.819457 -2.57789,-0.226133 -2.4644778,-1.122616 z"/><path style="fill:#3771c8;stroke:none" id="path3958" d="m 23.307803,9.7069466 -1.256188,3.1113174 c 0,0 1.549429,3.046977 2.842951,3.045118 2.360357,-0.0034 4.275446,0.05475 5.223097,-0.0662 0.902962,-0.115241 0.579577,-2.728591 -0.330576,-2.714126 l -4.165254,0.0662 z"/><path style="fill:#3771c8;stroke:none" id="path3960" d="m 12.531034,17.78313 -0.661152,5.163462 c 0,0 -3.4068968,4.110963 -4.4958297,5.031065 -0.7655477,0.646856 1.5877595,2.610519 2.3140298,1.919749 1.5759249,-1.498894 5.0165709,-4.647632 5.2230969,-5.693048 0.384056,-1.944067 0.462806,-3.839497 0.462806,-3.839497 z"/><rect style="fill:#3771c8;fill-opacity:1;fill-rule:evenodd;stroke:none" id="rect3964" width="7.936" height="6.155" x="10.093" y="9.354" ry=".927" transform="matrix(0.87554553,0.48313561,-0.48220582,0.87605796,0,0)"/><path style="fill:#3771c8;fill-opacity:1;fill-rule:evenodd;stroke:none" id="path3966" d="m 27.010666,5.6061649 a 2.8893621,2.6945736 0 1 1 -5.778725,0 2.8893621,2.6945736 0 1 1 5.778725,0 z" transform="matrix(0.92673173,0,0,0.93355492,-0.93045588,-2.0141416)"/></g></svg>