<svg xmlns="http://www.w3.org/2000/svg" xmlns:svg="http://www.w3.org/2000/svg" xmlns:xlink="http://www.w3.org/1999/xlink" id="svg2" width="32" height="32" version="1.1"><defs id="defs4"><linearGradient id="linearGradient3674"><stop style="stop-color:#fff;stop-opacity:1" id="stop3676" offset="0"/><stop style="stop-color:#90bbd4;stop-opacity:1" id="stop3678" offset="1"/></linearGradient><linearGradient id="linearGradient3596"><stop style="stop-color:#ff0;stop-opacity:1" id="stop3598" offset="0"/><stop style="stop-color:#ededd2;stop-opacity:.99137932" id="stop3600" offset="1"/></linearGradient><linearGradient id="linearGradient3759"><stop style="stop-color:#0f1934;stop-opacity:1" id="stop3761" offset="0"/><stop style="stop-color:#0f1123;stop-opacity:1" id="stop3763" offset="1"/></linearGradient><linearGradient id="linearGradient3680" x1="23.639" x2="-9.472" y1="1029.832" y2="1043.994" gradientTransform="matrix(1.1274903,0,0,1.1742062,-0.90288397,-180.95653)" gradientUnits="userSpaceOnUse" xlink:href="#linearGradient3674"/></defs><metadata id="metadata7"/><g id="layer1" transform="translate(0,-1020.3622)"><path style="fill:url(#linearGradient3680);fill-opacity:1;stroke:#41597a;stroke-width:1.5;stroke-linecap:round;stroke-linejoin:round;stroke-miterlimit:4;stroke-opacity:1;stroke-dasharray:none" id="path2822" d="m 1.6792215,1047.9744 c 0,0 7.306834,-15.3271 12.7036685,-25.4536 1.503025,-2.6229 3.083285,-0.1899 3.083285,-0.1899 0.0763,0.1019 12.24441,24.4147 12.24441,24.4147 1.105246,2.6168 3.133057,5.0217 -1.16351,4.9345 l -24.4951475,-0.1548 c 0,0 -4.62537885,0.6467 -2.372706,-3.5517 z"/><text style="font-size:24.92413139px;font-style:normal;font-weight:400;fill:#11293d;fill-opacity:1;stroke:none;font-family:Arial;-inkscape-font-specification:Arial" id="text3604" x="-6.313" y="1337.327" transform="scale(1.2868668,0.7770812)" xml:space="preserve"><tspan id="tspan3606" x="-6.313" y="1337.327">!</tspan></text><path style="fill:#11293d;fill-opacity:1;fill-rule:evenodd;stroke:none" id="path3808" d="m 14.854932,37.694389 a 1.7640232,1.6092843 0 1 1 -3.528046,0 1.7640232,1.6092843 0 1 1 3.528046,0 z" transform="matrix(1.2890225,0,0,1.399682,-0.69136928,993.77957)"/><path style="fill:#11293d;fill-opacity:1;stroke:none" id="path3810" d="m 15.263409,1027.2981 -0.822246,7.6043 0.822246,6.5179 1.644492,0 0.757277,-6.5179 -0.757277,-7.6043 c 0,0 -0.507749,-0.5346 -0.952183,-0.4811 -0.444432,0.053 -0.692309,0.4811 -0.692309,0.4811 z"/></g></svg>