<svg xmlns="http://www.w3.org/2000/svg" xmlns:svg="http://www.w3.org/2000/svg" id="Layer_1" width="64" height="64" data-name="Layer 1" version="1.1" viewBox="0 0 64 64"><title id="title2992">ecflow logo</title><metadata id="metadata27"/><defs id="defs3"><style id="style5">.cls-1{fill:url(#linear-gradient)}.cls-2{fill:url(#linear-gradient-2)}.cls-3{fill:#fff;opacity:.66}</style><linearGradient id="linear-gradient-2" x1="21" x2="83" y1="46" y2="46" gradientUnits="userSpaceOnUse"><stop id="stop13" offset="0" stop-color="#007ac1" style="stop-color:#007dc1;stop-opacity:1"/><stop id="stop15" offset="1" stop-color="#00294e"/></linearGradient></defs><rect id="rect19" width="50.757" height="50.325" x="7.601" y="7.417" class="cls-1" rx="7.724" ry="7.658" style="fill:#fff;fill-opacity:1;stroke:#fff;stroke-width:1.12927;stroke-miterlimit:4;stroke-dasharray:none;stroke-opacity:1"/><polygon id="polygon21" points="37 28 69 28 69 34 83 20 69 6 69 12 21 12 21 86 37 86 37 63 37 60 53 60 53 66 67 52 53 38 53 44 37 44" class="cls-2" transform="matrix(0.52279175,0,0,0.53626033,7.7225883,7.6954632)" style="fill:url(#linear-gradient-2)"/><polygon id="polygon23" points="27 18 27 80 31 80 31 54 56 54 56 56 60 52 56 48 56 50 31 50 31 22 72 22 72 24 75.93 20 72 16 72 18" class="cls-3" transform="matrix(0.52279175,0,0,0.53626033,7.7225883,7.6954632)" style="opacity:.66;fill:#fff"/></svg>