<svg xmlns="http://www.w3.org/2000/svg" xmlns:svg="http://www.w3.org/2000/svg" xmlns:xlink="http://www.w3.org/1999/xlink" id="svg1455" width="32" height="32" version="1.1" style="display:inline"><defs id="defs3"><linearGradient id="linearGradient3756"><stop style="stop-color:#0ce83c;stop-opacity:1" id="stop3758" offset="0"/><stop style="stop-color:#00c600;stop-opacity:1" id="stop3760" offset="1"/></linearGradient><linearGradient id="linearGradient3750"><stop id="stop3752" offset="0" style="stop-color:#b3b3b3;stop-opacity:1"/><stop id="stop3754" offset="1" style="stop-color:#ececec;stop-opacity:1"/></linearGradient><linearGradient id="linearGradient3748" x1="-7.537" x2="27.513" y1="3.938" y2="28.465" gradientTransform="translate(0.53269917,13.070156)" gradientUnits="userSpaceOnUse" xlink:href="#linearGradient3750"/></defs><metadata id="metadata7"/><g id="layer2"><path style="fill:#4d5e5f;fill-opacity:1;stroke:#39525c;stroke-width:1px;stroke-linecap:butt;stroke-linejoin:round;stroke-opacity:1;display:inline" id="path3765" d="m 6.2782394,29.693355 19.4815696,0.04267 c 0,0 -4.188195,-1.05274 -5.704064,-2.432351 -0.601832,-0.547735 -1.140812,-2.133642 -1.140812,-2.133642 l -5.704063,1e-6 c 0,0 -0.736849,1.61742 -1.404078,2.176314 -1.523569,1.276198 -4.0367207,1.650016 -5.5285526,2.347006 z"/></g><g id="layer1" transform="translate(0,-16)" style="display:inline"><rect style="fill:url(#linearGradient3748);fill-opacity:1;fill-rule:evenodd;stroke:#466069;stroke-width:1.7;stroke-linecap:butt;stroke-linejoin:miter;stroke-miterlimit:4;stroke-opacity:1;stroke-dasharray:none;stroke-dashoffset:0" id="rect3740" width="29.907" height="22.031" x="1.141" y="18.663" ry="3.196"/></g><g id="layer6" style="display:inline"><path style="fill:none;stroke:#006680;stroke-width:1.60000002;stroke-linecap:butt;stroke-linejoin:miter;stroke-miterlimit:4;stroke-opacity:1;stroke-dasharray:none" id="path3720" d="m 3.5386444,16.63961 c 0,0 2.6901612,2.862163 2.6901612,2.862163 0,0 2.3836383,-4.074373 2.3836383,-4.074373 0,0 1.9669941,3.400923 1.9669941,3.400923 0,0 4.620415,-6.869193 4.620415,-6.869193 0,0 5.535391,8.283438 5.535391,8.283438 0,0 3.291759,-7.609988 4.937638,-11.4149818 1.157791,3.5243898 2.315582,7.0487798 3.473373,10.5731698"/></g></svg>