<svg xmlns="http://www.w3.org/2000/svg" xmlns:svg="http://www.w3.org/2000/svg" xmlns:xlink="http://www.w3.org/1999/xlink" id="svg2" width="32" height="32" version="1.1"><defs id="defs4"><linearGradient id="linearGradient3756"><stop id="stop3758" offset="0" style="stop-color:#bc9443;stop-opacity:1"/><stop id="stop3760" offset="1" style="stop-color:#cc945c;stop-opacity:0"/></linearGradient><linearGradient id="linearGradient3728"><stop style="stop-color:#f2c676;stop-opacity:1" id="stop3730" offset="0"/><stop style="stop-color:#273df9;stop-opacity:0" id="stop3732" offset="1"/></linearGradient><linearGradient id="linearGradient3614"><stop style="stop-color:#c8613e;stop-opacity:1" id="stop3616" offset="0"/><stop style="stop-color:#ececec;stop-opacity:1" id="stop3618" offset="1"/></linearGradient><linearGradient id="linearGradient3602"><stop style="stop-color:#facd66;stop-opacity:1" id="stop3604" offset="0"/><stop style="stop-color:#e29b2a;stop-opacity:1" id="stop3606" offset="1"/></linearGradient><linearGradient id="linearGradient3693" x1="5.648" x2="16.755" y1="9.761" y2="6.593" gradientUnits="userSpaceOnUse" xlink:href="#linearGradient3602"/><linearGradient id="linearGradient3720" x1="24.437" x2="15.941" y1="3.485" y2="18.884" gradientTransform="matrix(1.0688752,0,0,-1.1672542,-13.554303,35.915433)" gradientUnits="userSpaceOnUse" xlink:href="#linearGradient3756"/><linearGradient id="linearGradient3786" x1="5.648" x2="18.491" y1="9.761" y2="26.818" gradientUnits="userSpaceOnUse" xlink:href="#linearGradient3602"/></defs><metadata id="metadata7"/><g id="layer3" style="display:inline"><path style="fill:url(#linearGradient3786);fill-opacity:1;fill-rule:evenodd;stroke:url(#linearGradient3693);stroke-width:.90856528000000003;stroke-linecap:butt;stroke-linejoin:miter;stroke-miterlimit:4;stroke-opacity:1;stroke-dasharray:none;stroke-dashoffset:0" id="path2820" d="m 29.173333,16.559999 a 13.76,12.613334 0 1 1 -27.5200003,0 13.76,12.613334 0 1 1 27.5200003,0 z" transform="matrix(1.0537791,0,0,-1.1495772,-0.30224808,35.097001)"/></g><g id="layer2"><path style="fill:#fff;stroke:none" id="path3006" d="M 10.78709,6.3309422 C 9.9984127,6.8332191 10.768294,7.5092456 10.574989,7.6532178 9.1178557,8.7384769 8.3882346,11.15193 8.546331,13.61541 c 0.1873746,2.919701 2.442308,5.398072 2.83879,7.933031 0.08899,0.56902 -0.90573,1.672894 -1.105958,2.625689 -0.166483,0.792213 0.574611,1.674016 0.574611,1.674016 l 16.14158,-8.366108 c 0,0 -0.341433,-1.057359 -1.206999,-1.510819 -0.832102,-0.435931 -2.082133,0.08146 -2.498124,-0.204897 C 20.165422,13.615252 20.527245,11.230428 17.735582,8.6781756 16.013672,7.1039374 13.248271,6.8428658 12.060012,6.9440337 11.719193,6.9730508 11.575769,5.8286655 10.78709,6.3309422 z"/></g><g id="layer4"><path style="fill:none;stroke:#ab6309;stroke-width:1.2407699800000001;stroke-linecap:butt;stroke-linejoin:miter;stroke-miterlimit:4;stroke-opacity:1;stroke-dasharray:none;stroke-dashoffset:0" id="path3786" d="m 30.186666,17.973333 a 13.973333,13.706667 0 1 1 -27.9466662,0 13.973333,13.706667 0 1 1 27.9466662,0 z" transform="matrix(1.0376908,0,0,1.0578794,-0.937761,-2.9536141)"/><path style="fill:#fff;stroke:none" id="path3008" d="m 16.716124,24.323863 c 0,0 2.062872,1.553421 3.822625,0.658654 1.759753,-0.894767 1.729494,-3.461877 1.729494,-3.461877 z"/></g></svg>