<svg xmlns="http://www.w3.org/2000/svg" xmlns:svg="http://www.w3.org/2000/svg" xmlns:xlink="http://www.w3.org/1999/xlink" id="svg2985" width="64" height="64" version="1.1"><title id="title2993">Metview icon</title><defs id="defs2987"><linearGradient id="linearGradient4159"><stop id="stop4161" offset="0" style="stop-color:#e8d5a2;stop-opacity:1"/><stop id="stop4163" offset="1" style="stop-color:#f7e198;stop-opacity:1"/></linearGradient><linearGradient id="linearGradient5915"><stop id="stop5917" offset="0" style="stop-color:#e9a552;stop-opacity:1"/><stop id="stop5919" offset="1" style="stop-color:#e7d28b;stop-opacity:1"/></linearGradient><linearGradient id="linearGradient3782"><stop style="stop-color:#6a6d71;stop-opacity:1" id="stop3784" offset="0"/><stop style="stop-color:#606164;stop-opacity:1" id="stop3786" offset="1"/></linearGradient><linearGradient id="linearGradient3765"><stop style="stop-color:#e8c25e;stop-opacity:1" id="stop3767" offset="0"/><stop style="stop-color:#f7e198;stop-opacity:1" id="stop3769" offset="1"/></linearGradient><linearGradient id="linearGradient3775"><stop id="stop3777" offset="0" style="stop-color:#f5f5f5;stop-opacity:1"/><stop id="stop3779" offset="1" style="stop-color:#d3d8da;stop-opacity:1"/></linearGradient><linearGradient id="linearGradient3771" x1="42.064" x2="6.638" y1="53.744" y2="20.169" gradientTransform="matrix(0.91161384,0,0,0.85798799,5.0462004,7.9807532)" gradientUnits="userSpaceOnUse" xlink:href="#linearGradient3765"/><linearGradient id="linearGradient3776" x1="108.627" x2="10.401" y1="-82.057" y2="59.973" gradientTransform="matrix(0.51031759,0,0,-0.10859702,5.3623965,13.524902)" gradientUnits="userSpaceOnUse" xlink:href="#linearGradient4159"/><linearGradient id="linearGradient3788" x1="71.89" x2="-7.611" y1="61.835" y2="20.009" gradientTransform="matrix(0.91161384,0,0,0.85798799,5.1638275,8.6271787)" gradientUnits="userSpaceOnUse" xlink:href="#linearGradient3782"/><linearGradient id="linearGradient3908" x1="57.457" x2="21.215" y1="55.657" y2="28.643" gradientTransform="matrix(0.97812443,0,0,0.96376754,0.49619622,1.1892536)" gradientUnits="userSpaceOnUse" xlink:href="#linearGradient5915"/><filter id="filter3958"><feGaussianBlur id="feGaussianBlur3960" stdDeviation=".526"/></filter></defs><metadata id="metadata7"/><g id="layer2" style="display:inline"><path id="path3773" d="M 8.4454544,58.824331 C 8.3741378,40.537752 8.7448989,10.820982 8.7990672,8.6659648 9.2352723,5.4806573 12.687952,6.125461 14.362787,6.1160929 l 13.670274,-0.076464 c 3.723765,-0.020829 1.143711,4.6133521 3.766676,4.6485441 l 11.39848,0.152926 13.290761,0 c 2.624204,-0.02514 4.746268,0.287581 4.76721,2.828019 l 0.371474,45.061372 z" style="fill:url(#linearGradient3776);fill-opacity:1;stroke:#67697a;stroke-width:.97966641;stroke-linecap:butt;stroke-linejoin:round;stroke-miterlimit:4;stroke-dasharray:none;stroke-opacity:1"/></g><g id="layer1"><path style="fill:url(#linearGradient3771);fill-opacity:1;stroke:url(#linearGradient3788);stroke-width:2;stroke-linecap:round;stroke-linejoin:round;stroke-miterlimit:4;stroke-dasharray:none;stroke-opacity:1" id="path2995" d="m 2.6813814,24.14294 5.6820179,34.641408 51.0664317,0.284136 c 0.01019,-0.03034 -3.603519,-17.459613 -3.603519,-17.459613 0,0 -3.408404,-16.860458 -3.468823,-17.338258 z"/><rect style="fill:#939dac;fill-opacity:1;stroke:none" id="rect3780" width="16.3" height="2.272" x="10.967" y="8.349" rx="0" ry="0"/><path style="fill:url(#linearGradient3908);fill-opacity:1;stroke:none;filter:url(#filter3958)" id="path3893" d="m 51.802494,27.180966 -0.934835,-1.605734 c -7.064221,0.609475 -1.528811,1.345066 -1.528811,3.818588 0,15.977042 -13.105752,23.715813 -35.305966,23.715813 -4.025038,0 -1.527241,0.747233 -5.1937243,-0.04512 L 9.8189671,57.586998 57.65845,57.816295 C 56.687964,56.901973 51.114334,27.180966 51.802494,27.180966 Z"/></g></svg>