<svg xmlns="http://www.w3.org/2000/svg" xmlns:svg="http://www.w3.org/2000/svg" xmlns:xlink="http://www.w3.org/1999/xlink" id="svg2" width="32" height="32" version="1.1"><defs id="defs4"><linearGradient id="linearGradient3855"><stop style="stop-color:#4a4a4a;stop-opacity:1" id="stop3857" offset="0"/><stop style="stop-color:#535353;stop-opacity:1" id="stop3859" offset="1"/></linearGradient><linearGradient id="linearGradient3834"><stop style="stop-color:#cd9f63;stop-opacity:1" id="stop3836" offset="0"/><stop style="stop-color:#f6cf96;stop-opacity:1" id="stop3838" offset="1"/></linearGradient><linearGradient id="linearGradient3840" x1="2.047" x2="30.09" y1="21.785" y2="21.785" gradientUnits="userSpaceOnUse" xlink:href="#linearGradient3834"/><linearGradient id="linearGradient3843" x1="2.047" x2="30.09" y1="21.785" y2="21.785" gradientTransform="translate(-1.2648222,22.197628)" gradientUnits="userSpaceOnUse" xlink:href="#linearGradient3834"/><linearGradient id="linearGradient3853" x1="-13.522" x2="12.953" y1="24.379" y2="24.379" gradientTransform="matrix(1.1115393,0,0,0.99709303,16.411189,-2.9647027)" gradientUnits="userSpaceOnUse" xlink:href="#linearGradient3834"/><linearGradient id="linearGradient3861" x1="4.015" x2="28.128" y1="1028.055" y2="1028.055" gradientUnits="userSpaceOnUse" xlink:href="#linearGradient3855"/></defs><metadata id="metadata7"/><g id="layer2" style="display:none"><rect id="rect3616" width="31.234" height="30.846" x=".414" y=".484" style="fill:#fff;fill-opacity:1;stroke:#000007;stroke-width:1.05381024;stroke-linejoin:round;stroke-miterlimit:4;stroke-opacity:1;stroke-dasharray:none"/></g><g id="layer1" transform="translate(0,-1020.3622)" style="display:inline"><rect style="fill:#fff;fill-opacity:1;stroke:none" id="rect2987" width="16.297" height="16.559" x="7.097" y="1033.748"/><path style="fill:url(#linearGradient3861);fill-opacity:1;stroke:#333;stroke-width:1.2250000000000001;stroke-opacity:1;stroke-miterlimit:4;stroke-dasharray:none" id="rect3771" d="m 16.068862,1021.747 c -9.1332157,-0.01 -11.325695,7.3932 -11.4412852,12.5566 7.6274952,-0.012 15.5712622,0 23.1987762,0 0.220005,-7.1919 -4.372842,-12.7546 -11.757491,-12.5566 z m 0,12.5518 c 0.350174,0.064 -5.742645,0.084 -8.5809639,0 0.1156457,-5.1124 3.4044459,-9.4542 8.5177229,-9.4807 5.006237,-0.076 8.904693,3.3177 8.867897,9.5441 -2.977067,-0.017 -8.454482,0 -8.804656,-0.064 z"/><rect style="opacity:0;fill:#f55;fill-opacity:1;fill-rule:evenodd;stroke:#b1575c;stroke-opacity:1" id="rect2831" width="21.602" height="13.865" x="-45.617" y=".495" transform="translate(0,1020.3622)"/><path style="opacity:0;fill:#a00;fill-opacity:1;fill-rule:evenodd;stroke:#b1575c;stroke-width:2.5;stroke-linecap:round;stroke-linejoin:miter;stroke-miterlimit:4;stroke-opacity:1;stroke-dasharray:none;stroke-dashoffset:0" id="path3609" d="M -22.158606,16.649903 -41.01185,14.227286 -59.865095,11.804668 -48.340424,-3.3114119 -36.815753,-18.427492 -29.48718,-0.88879442 z" transform="translate(0,1020.3622)"/></g><g id="layer3" style="display:inline"><rect style="fill:url(#linearGradient3853);fill-opacity:1;stroke:#484848;stroke-width:2;stroke-linecap:round;stroke-linejoin:round;stroke-miterlimit:4;stroke-opacity:1;stroke-dasharray:none;stroke-dashoffset:0" id="rect3845" width="27.204" height="18.097" x="2.493" y="12.295" ry=".569"/><path style="fill:#484848;fill-opacity:1;stroke:#484848;stroke-width:2;stroke-linecap:round;stroke-linejoin:round;stroke-miterlimit:4;stroke-opacity:1;stroke-dasharray:none;stroke-dashoffset:0" id="path3879" d="m 26.561265,22.671936 a 2.4664032,2.4347825 0 1 1 -4.932806,0 2.4664032,2.4347825 0 1 1 4.932806,0 z" transform="translate(-0.63241106,-2.3399209)"/><path id="path3881" d="m 24.853755,22.671936 a 0.75889337,2.4347825 0 1 1 -1.517786,0 0.75889337,2.4347825 0 1 1 1.517786,0 z" transform="matrix(-1,-0.01824401,0,1,47.557313,1.2617218)" style="fill:#484848;fill-opacity:1;stroke:#484848;stroke-width:2;stroke-linecap:round;stroke-linejoin:round;stroke-miterlimit:4;stroke-opacity:1;stroke-dasharray:none;stroke-dashoffset:0"/></g></svg>