<svg xmlns="http://www.w3.org/2000/svg" xmlns:svg="http://www.w3.org/2000/svg" xmlns:xlink="http://www.w3.org/1999/xlink" id="svg2" width="32" height="32" version="1.1"><defs id="defs4"><linearGradient id="linearGradient3852"><stop style="stop-color:#bd7328;stop-opacity:1" id="stop3854" offset="0"/><stop style="stop-color:#f87f1f;stop-opacity:1" id="stop3856" offset="1"/></linearGradient><linearGradient id="linearGradient3799"><stop style="stop-color:#e9c49b;stop-opacity:1" id="stop3801" offset="0"/><stop style="stop-color:#ff9800;stop-opacity:1" id="stop3803" offset="1"/></linearGradient><linearGradient id="linearGradient3777"><stop style="stop-color:#0000ad;stop-opacity:1" id="stop3779" offset="0"/><stop style="stop-color:#25d4ce;stop-opacity:1" id="stop3781" offset="1"/></linearGradient><linearGradient id="linearGradient3756"><stop id="stop3758" offset="0" style="stop-color:#519aed;stop-opacity:1"/><stop id="stop3760" offset="1" style="stop-color:#e9dddd;stop-opacity:0"/></linearGradient><linearGradient id="linearGradient3728"><stop style="stop-color:#f1f3fb;stop-opacity:1" id="stop3730" offset="0"/><stop style="stop-color:#273df9;stop-opacity:0" id="stop3732" offset="1"/></linearGradient><linearGradient id="linearGradient3710" x1="15.413" x2="15.941" y1="3.48" y2="18.884" gradientTransform="matrix(1.1886899,0,0,-1.2899296,-0.54032111,39.211527)" gradientUnits="userSpaceOnUse" xlink:href="#linearGradient3728"/><linearGradient id="linearGradient3720" x1="24.437" x2="15.941" y1="3.485" y2="18.884" gradientTransform="matrix(1.1886899,0,0,-1.2899296,-0.54032111,39.211527)" gradientUnits="userSpaceOnUse" xlink:href="#linearGradient3756"/><linearGradient id="linearGradient3783" x1="1.428" x2="28.441" y1="16.374" y2="16.374" gradientTransform="matrix(1.0279887,0,0,1.0323478,7.1553463,-2.2096664)" gradientUnits="userSpaceOnUse" xlink:href="#linearGradient3777"/><linearGradient id="linearGradient3834" x1="-9.216" x2="36.303" y1="17.618" y2="17.618" gradientTransform="matrix(0.6376932,0,0,0.76358518,6.7967495,3.2589676)" gradientUnits="userSpaceOnUse" xlink:href="#linearGradient3799"/><linearGradient id="linearGradient3858" x1="4.405" x2="23.332" y1="16.301" y2="16.521" gradientTransform="matrix(1.039503,0,0,1.0329629,0.64943116,0.59425139)" gradientUnits="userSpaceOnUse" xlink:href="#linearGradient3852"/></defs><metadata id="metadata7"/><g id="layer3" style="display:inline"><path style="fill:url(#linearGradient3710);fill-opacity:1;fill-rule:evenodd;stroke:url(#linearGradient3720);stroke-width:1.03536737;stroke-linecap:butt;stroke-linejoin:miter;stroke-miterlimit:4;stroke-opacity:1;stroke-dasharray:none;stroke-dashoffset:0" id="path3695" d="m 2.677454,24.057114 c -2.26898106,6.669282 -1.1344905,3.33464 0,0 z"/></g><g id="layer2" style="display:inline"><path style="fill:#fff;fill-opacity:1;fill-rule:evenodd;stroke:none" id="path3872" d="M 25.195659,4.8005208 17.988179,15.901503 27.933522,14.429532 25.195659,4.8005208 z"/><path id="path3823" d="M 22.768247,22.571097 C 19.629624,25.906125 14.27426,26.162584 10.806705,23.143915 9.245624,21.784921 8.3332925,19.993813 8.0883583,18.130799 7.7892322,15.855591 8.485499,13.473137 10.211125,11.639527 c 3.138623,-3.3350283 8.493987,-3.5914882 11.961541,-0.572818 0.03107,0.02705 -4.005361,4.779107 -3.974714,4.806588 L 30.742328,14.874869 30.259982,1.5122364 26.088554,6.3790129 C 20.041371,1.1146547 10.701973,1.5619031 5.2284239,7.3779704 -0.24512559,13.194037 0.21989559,22.176497 6.267077,27.440854 c 6.047182,5.264359 15.386579,4.817111 20.860129,-0.998957" style="fill:url(#linearGradient3834);fill-opacity:1;stroke:#855900;stroke-width:1;stroke-miterlimit:4;stroke-opacity:1"/><path style="fill:url(#linearGradient3858);fill-opacity:1;stroke:none" id="path3844" d="M 15.293391,6.0370671 C 6.7760313,6.2860296 0.70418868,16.68213 7.7921142,24.620644 8.656243,25.449408 11.961076,27.578711 15.852084,27.289269 22.378473,26.861982 23.69003,23.964368 23.173979,23.85278 21.872487,23.571353 21.902663,25.717886 16.06003,26.061511 7.3423181,24.750823 3.8761879,15.237487 11.266923,10.004953 12.995436,8.9778917 14.613912,8.3291145 16.293549,8.2451512 18.270837,8.1463084 20.332886,8.8302016 22.758988,10.601138 22.341735,7.6886086 19.166305,6.392768 15.293391,6.0370671 z"/></g><g id="layer4" style="display:none"><path style="fill:none;stroke:#2f6ab7;stroke-width:1.24076998;stroke-linecap:butt;stroke-linejoin:miter;stroke-miterlimit:4;stroke-opacity:1;stroke-dasharray:none;stroke-dashoffset:0" id="path3786" d="m 30.186666,17.973333 a 13.973333,13.706667 0 1 1 -27.9466662,0 13.973333,13.706667 0 1 1 27.9466662,0 z" transform="matrix(1.0376908,0,0,1.0578794,-0.937761,-2.9536141)"/></g></svg>