<svg xmlns="http://www.w3.org/2000/svg" xmlns:svg="http://www.w3.org/2000/svg" xmlns:xlink="http://www.w3.org/1999/xlink" id="svg2" width="32" height="32" version="1.1"><defs id="defs4"><linearGradient id="linearGradient3852"><stop style="stop-color:#467b3c;stop-opacity:1" id="stop3854" offset="0"/><stop style="stop-color:#3d9f3d;stop-opacity:.99215686" id="stop3856" offset="1"/></linearGradient><linearGradient id="linearGradient3799"><stop style="stop-color:#aae1be;stop-opacity:1" id="stop3801" offset="0"/><stop style="stop-color:#4bc82b;stop-opacity:1" id="stop3803" offset="1"/></linearGradient><linearGradient id="linearGradient3777"><stop style="stop-color:#0000ad;stop-opacity:1" id="stop3779" offset="0"/><stop style="stop-color:#25d4ce;stop-opacity:1" id="stop3781" offset="1"/></linearGradient><linearGradient id="linearGradient3756"><stop id="stop3758" offset="0" style="stop-color:#519aed;stop-opacity:1"/><stop id="stop3760" offset="1" style="stop-color:#e9dddd;stop-opacity:0"/></linearGradient><linearGradient id="linearGradient3728"><stop style="stop-color:#f1f3fb;stop-opacity:1" id="stop3730" offset="0"/><stop style="stop-color:#273df9;stop-opacity:0" id="stop3732" offset="1"/></linearGradient><linearGradient id="linearGradient3710" x1="15.413" x2="15.941" y1="3.48" y2="18.884" gradientTransform="matrix(1.1066784,0,0,-1.2085368,0.23065739,37.26001)" gradientUnits="userSpaceOnUse" xlink:href="#linearGradient3728"/><linearGradient id="linearGradient3720" x1="24.437" x2="15.941" y1="3.485" y2="18.884" gradientTransform="matrix(1.1066784,0,0,-1.2085368,0.23065739,37.26001)" gradientUnits="userSpaceOnUse" xlink:href="#linearGradient3756"/><linearGradient id="linearGradient3783" x1="1.428" x2="28.441" y1="16.374" y2="16.374" gradientTransform="matrix(1.0279887,0,0,1.0323478,7.1553463,-2.2096664)" gradientUnits="userSpaceOnUse" xlink:href="#linearGradient3777"/><linearGradient id="linearGradient3834" x1="-9.216" x2="36.303" y1="17.618" y2="17.618" gradientTransform="matrix(0.58696949,0,0,0.69646685,-20.195316,-9.1731731)" gradientUnits="userSpaceOnUse" xlink:href="#linearGradient3799"/><linearGradient id="linearGradient3858" x1="4.405" x2="23.332" y1="16.301" y2="16.521" gradientTransform="matrix(0.96778437,0,0,0.96778437,-23.995009,-11.507236)" gradientUnits="userSpaceOnUse" xlink:href="#linearGradient3852"/></defs><metadata id="metadata7"/><g id="layer3" style="display:inline"><path style="fill:url(#linearGradient3710);fill-opacity:1;fill-rule:evenodd;stroke:url(#linearGradient3720);stroke-width:1.03536737;stroke-linecap:butt;stroke-linejoin:miter;stroke-miterlimit:4;stroke-opacity:1;stroke-dasharray:none;stroke-dashoffset:0" id="path3695" d="m 3.2264279,23.061819 c -2.1124368,6.24846 -1.0562184,3.12423 0,0 z"/></g><g id="layer5"><path style="fill:none;stroke:#904a3d;stroke-width:3.07148147;stroke-linecap:butt;stroke-linejoin:miter;stroke-miterlimit:4;stroke-opacity:1;stroke-dasharray:none;stroke-dashoffset:0;display:inline" id="path3786-0-6" d="M 30.186666,17.973333 A 13.973333,13.706667 0 1 1 17.382592,4.3147376" transform="matrix(0.81471999,0.52159237,-0.53179041,0.83049208,13.199085,-6.5834619)"/></g><g id="layer2" style="display:inline"><path style="fill:none;stroke:#ec4223;stroke-width:2.05578876;stroke-linecap:butt;stroke-linejoin:miter;stroke-miterlimit:4;stroke-opacity:1;stroke-dasharray:none;stroke-dashoffset:0;display:inline" id="path3786-0" d="M 30.186666,17.973333 A 13.973333,13.706667 0 1 1 17.382592,4.3147376" transform="matrix(0.81148675,0.51953455,-0.52967998,0.82721557,12.831442,-7.3359124)"/><path style="opacity:0;fill:#d34868;fill-opacity:1;fill-rule:evenodd;stroke:#f77ae2;stroke-width:1;stroke-linecap:round;stroke-linejoin:round;stroke-miterlimit:4;stroke-opacity:1;stroke-dasharray:none;stroke-dashoffset:0" id="path3864" d="m 20.206983,-1.1687402 c -0.227345,0.1530424 -5.939569,-2.8140148 -6.186075,-2.9340857 -0.246505,-0.120071 -6.1036701,-2.8064635 -6.1228817,-3.0799282 -0.019212,-0.2734647 5.4088617,-3.7367979 5.6360547,-3.8904889 0.227193,-0.153691 5.475481,-3.895108 5.721758,-3.77474 0.246277,0.120368 0.543755,6.5535167 0.562616,6.8271428 0.01886,0.2736261 0.615873,6.6990576 0.388528,6.8521 z"/><path style="fill:#ec4223;stroke:none" id="path3866" d="M 27.41997,1.0209203 21.521223,9.7969942 29.752535,9.0337011 z"/></g><g id="layer4" style="display:inline"><path style="fill:none;stroke:#ec4223;stroke-width:2.65748382;stroke-linecap:butt;stroke-linejoin:miter;stroke-miterlimit:4;stroke-opacity:1;stroke-dasharray:none;stroke-dashoffset:0" id="path3786" d="m 30.186666,17.973333 a 13.973333,13.706667 0 1 1 -27.9466662,0 13.973333,13.706667 0 1 1 27.9466662,0 z" transform="matrix(0.48449427,0,0,0.49392022,9.3680655,7.5526128)"/><path style="fill:#ec4223;fill-opacity:1;stroke:#ec4223;stroke-width:1;stroke-linecap:butt;stroke-linejoin:miter;stroke-miterlimit:4;stroke-opacity:1;stroke-dasharray:none" id="path3798" d="m 17.173333,11.588813 c 0,5.675708 0,5.675708 0,5.675708"/><path style="fill:#ec4223;fill-opacity:1;stroke:#ec4223;stroke-width:1;stroke-linecap:butt;stroke-linejoin:miter;stroke-miterlimit:4;stroke-opacity:1;stroke-dasharray:none;display:inline" id="path3798-6" d="m 16.959447,16.886046 c 3.841105,2.485937 3.841105,2.485937 3.841105,2.485937"/></g></svg>