<svg xmlns="http://www.w3.org/2000/svg" xmlns:svg="http://www.w3.org/2000/svg" id="svg2" width="32" height="32" version="1.1"><metadata id="metadata7"/><g id="layer2" style="display:inline"><path style="display:inline;fill:none;stroke:#333;stroke-width:2.00059724;stroke-linecap:butt;stroke-linejoin:miter;stroke-miterlimit:4;stroke-dasharray:none;stroke-dashoffset:0;stroke-opacity:1" id="path3786-0" d="M 35.19555,5.2926254 A 12.703578,12.502951 0 0 1 27.106562,16.941515 12.703578,12.502951 0 0 1 13.140905,13.755572 12.703578,12.502951 0 0 1 11.083809,-0.20791244 12.703578,12.502951 0 0 1 23.55498,-7.1664756" transform="matrix(0.851286,0.52470196,-0.55380005,0.83264969,0,0)"/><path style="opacity:0;fill:#d34868;fill-opacity:1;fill-rule:evenodd;stroke:#f77ae2;stroke-width:1;stroke-linecap:round;stroke-linejoin:round;stroke-miterlimit:4;stroke-dasharray:none;stroke-dashoffset:0;stroke-opacity:1" id="path3864" d="m 20.206983,-1.1687402 c -0.227345,0.1530424 -5.939569,-2.8140148 -6.186075,-2.9340857 -0.246505,-0.120071 -6.1036701,-2.8064635 -6.1228817,-3.0799282 -0.019212,-0.2734647 5.4088617,-3.7367979 5.6360547,-3.8904889 0.227193,-0.153691 5.475481,-3.895108 5.721758,-3.77474 0.246277,0.120368 0.543755,6.5535167 0.562616,6.8271428 0.01886,0.2736261 0.615873,6.6990576 0.388528,6.8521 z"/><path style="fill:#333;stroke:#333;stroke-width:1" id="path3866" d="M 26.660918,2.4961528 21.035176,10.554103 28.885528,9.8532677 Z"/></g></svg>