<svg xmlns="http://www.w3.org/2000/svg" xmlns:svg="http://www.w3.org/2000/svg" xmlns:xlink="http://www.w3.org/1999/xlink" id="svg2" width="32" height="32" version="1.1"><defs id="defs4"><linearGradient id="linearGradient3852"><stop style="stop-color:#c26e1e;stop-opacity:1" id="stop3854" offset="0"/><stop style="stop-color:#fdc030;stop-opacity:.99215686" id="stop3856" offset="1"/></linearGradient><linearGradient id="linearGradient3799"><stop style="stop-color:#f2ec60;stop-opacity:1" id="stop3801" offset="0"/><stop style="stop-color:#ecc118;stop-opacity:1" id="stop3803" offset="1"/></linearGradient><linearGradient id="linearGradient3777"><stop style="stop-color:#0000ad;stop-opacity:1" id="stop3779" offset="0"/><stop style="stop-color:#25d4ce;stop-opacity:1" id="stop3781" offset="1"/></linearGradient><linearGradient id="linearGradient3756"><stop id="stop3758" offset="0" style="stop-color:#519aed;stop-opacity:1"/><stop id="stop3760" offset="1" style="stop-color:#e9dddd;stop-opacity:0"/></linearGradient><linearGradient id="linearGradient3728"><stop style="stop-color:#f1f3fb;stop-opacity:1" id="stop3730" offset="0"/><stop style="stop-color:#273df9;stop-opacity:0" id="stop3732" offset="1"/></linearGradient><linearGradient id="linearGradient3710" x1="15.413" x2="15.941" y1="3.48" y2="18.884" gradientTransform="matrix(-1.1066784,0,0,-1.2085368,31.215951,40.353343)" gradientUnits="userSpaceOnUse" xlink:href="#linearGradient3728"/><linearGradient id="linearGradient3720" x1="24.437" x2="15.941" y1="3.485" y2="18.884" gradientTransform="matrix(-1.1066784,0,0,-1.2085368,31.215951,40.353343)" gradientUnits="userSpaceOnUse" xlink:href="#linearGradient3756"/><linearGradient id="linearGradient3783" x1="1.428" x2="28.441" y1="16.374" y2="16.374" gradientTransform="matrix(1.0279887,0,0,1.0323478,7.1553463,-2.2096664)" gradientUnits="userSpaceOnUse" xlink:href="#linearGradient3777"/><linearGradient id="linearGradient3834" x1="-9.216" x2="36.303" y1="17.618" y2="17.618" gradientTransform="matrix(-0.59369669,0,0,0.71540403,24.385089,6.6693401)" gradientUnits="userSpaceOnUse" xlink:href="#linearGradient3799"/><linearGradient id="linearGradient3823" x1="4.405" x2="23.332" y1="16.301" y2="16.521" gradientTransform="matrix(-0.96778437,0,0,0.96778437,29.89495,4.3327637)" gradientUnits="userSpaceOnUse" xlink:href="#linearGradient3852"/></defs><metadata id="metadata7"/><g id="layer3" style="display:inline"><path style="fill:url(#linearGradient3710);fill-opacity:1;fill-rule:evenodd;stroke:url(#linearGradient3720);stroke-width:1.03536737;stroke-linecap:butt;stroke-linejoin:miter;stroke-miterlimit:4;stroke-opacity:1;stroke-dasharray:none;stroke-dashoffset:0" id="path3695" d="m 28.220181,26.155152 c 2.112436,6.24846 1.056218,3.12423 0,0 z"/></g><g id="layer2" style="display:inline"><path style="fill:#fff;fill-opacity:1;fill-rule:evenodd;stroke:none" id="path3872" d="M 7.2555798,8.1136233 13.965792,18.514148 4.7066108,17.135057 7.2555798,8.1136233 z"/><path id="path3823" d="m 19.211793,22.099576 c 2.78671,-1.470376 3.181437,-3.873236 3.170799,-4.27013 -0.07432,-2.772627 -1.354722,-3.843702 -2.082976,-4.428348 -1.911829,-1.534824 -6.78796,-1.978204 -10.016276,0.849992 -0.02892,0.02534 4.111848,5.095513 4.073819,5.089966 L 1.8249258,16.965628 2.0073268,4.3394918 5.9976208,9.1658483 C 11.62759,4.2336636 21.859917,4.0671464 26.591877,9.8351063 30.776543,14.93595 30.355161,20.810375 26.05155,26.498717" style="fill:url(#linearGradient3834);fill-opacity:1;stroke:#633624;stroke-width:1;stroke-linecap:round;stroke-linejoin:round;stroke-miterlimit:4;stroke-opacity:1"/><path style="fill:url(#linearGradient3823);fill-opacity:1;stroke:none" id="path3844" d="m 16.154657,8.8454786 c 9.476387,-0.1934134 12.51598,10.1867064 7.250407,15.4909784 -1.361146,-0.771641 -2.728211,-1.196299 -3.03946,-2.128405 3.302055,-2.057565 3.881514,-6.656158 -0.248944,-9.858389 -2.311195,-0.861978 -3.46514,-0.931631 -4.786489,-0.848761 -1.729731,0.108482 -3.333984,0.601468 -5.5927022,2.26066 C 10.125935,11.03281 12.548948,9.1787352 16.154657,8.8454786 z"/></g><g id="layer4" style="display:none"><path style="fill:none;stroke:#2f6ab7;stroke-width:1.24076998;stroke-linecap:butt;stroke-linejoin:miter;stroke-miterlimit:4;stroke-opacity:1;stroke-dasharray:none;stroke-dashoffset:0" id="path3786" d="m 30.186666,17.973333 a 13.973333,13.706667 0 1 1 -27.9466662,0 13.973333,13.706667 0 1 1 27.9466662,0 z" transform="matrix(1.0376908,0,0,1.0578794,-0.937761,-2.9536141)"/></g></svg>