<svg xmlns="http://www.w3.org/2000/svg" xmlns:svg="http://www.w3.org/2000/svg" xmlns:xlink="http://www.w3.org/1999/xlink" id="svg2" width="32" height="32" version="1.1"><defs id="defs4"><linearGradient id="linearGradient3796"><stop id="stop3798" offset="0" style="stop-color:#e8eef2;stop-opacity:1"/><stop id="stop3800" offset="1" style="stop-color:#c5d9e4;stop-opacity:1"/></linearGradient><linearGradient id="linearGradient4010"><stop id="stop4012" offset="0" style="stop-color:#5c8085;stop-opacity:1"/><stop id="stop4014" offset="1" style="stop-color:#f9feff;stop-opacity:1"/></linearGradient><linearGradient id="linearGradient3994"><stop style="stop-color:#a5cbe0;stop-opacity:1" id="stop3996" offset="0"/><stop style="stop-color:#fff;stop-opacity:1" id="stop3998" offset="1"/></linearGradient><linearGradient id="linearGradient3986"><stop style="stop-color:#e3e1db;stop-opacity:1" id="stop3988" offset="0"/><stop style="stop-color:#b3cbd0;stop-opacity:1" id="stop3990" offset="1"/></linearGradient><linearGradient id="linearGradient3756"><stop id="stop3758" offset="0" style="stop-color:#519aed;stop-opacity:1"/><stop id="stop3760" offset="1" style="stop-color:#e9dddd;stop-opacity:0"/></linearGradient><linearGradient id="linearGradient3728"><stop style="stop-color:#f1f3fb;stop-opacity:1" id="stop3730" offset="0"/><stop style="stop-color:#273df9;stop-opacity:0" id="stop3732" offset="1"/></linearGradient><linearGradient id="linearGradient3614"><stop style="stop-color:#2c71d9;stop-opacity:1" id="stop3616" offset="0"/><stop style="stop-color:#ececec;stop-opacity:1" id="stop3618" offset="1"/></linearGradient><linearGradient id="linearGradient3602"><stop style="stop-color:#f5f5f5;stop-opacity:1" id="stop3604" offset="0"/><stop style="stop-color:#141bc6;stop-opacity:1" id="stop3606" offset="1"/></linearGradient><linearGradient id="linearGradient3691" x1="15.413" x2="15.413" y1="12.897" y2="31.086" gradientUnits="userSpaceOnUse" xlink:href="#linearGradient3614"/><linearGradient id="linearGradient3693" x1="15.413" x2="15.413" y1="2.234" y2="31.086" gradientUnits="userSpaceOnUse" xlink:href="#linearGradient3602"/><linearGradient id="linearGradient3710" x1="15.413" x2="15.941" y1="3.48" y2="18.884" gradientTransform="matrix(1.0688752,0,0,-1.1672542,-0.7930209,35.114)" gradientUnits="userSpaceOnUse" xlink:href="#linearGradient3728"/><linearGradient id="linearGradient3720" x1="24.437" x2="15.941" y1="3.485" y2="18.884" gradientTransform="matrix(1.0688752,0,0,-1.1672542,-0.7930209,35.114)" gradientUnits="userSpaceOnUse" xlink:href="#linearGradient3756"/><linearGradient id="linearGradient3992" x1="15.664" x2="15.664" y1="7.539" y2="31.306" gradientTransform="matrix(0.93057118,0,0,0.96772665,1.4231279,0.70411639)" gradientUnits="userSpaceOnUse" xlink:href="#linearGradient3796"/><linearGradient id="linearGradient4000" x1="8.142" x2="8.142" y1="31.306" y2="24.073" gradientTransform="matrix(0.93057118,0,0,0.96772665,1.4231279,0.70411639)" gradientUnits="userSpaceOnUse" xlink:href="#linearGradient3994"/><linearGradient id="linearGradient3790" x1="20.727" x2="22.847" y1="4.027" y2="3.707" gradientTransform="translate(-33.92,-1.8133333)" gradientUnits="userSpaceOnUse" xlink:href="#linearGradient4010"/><linearGradient id="linearGradient3792" x1="14" x2="10" y1="4" y2="23" gradientTransform="translate(-33.813333,-1.0666667)" gradientUnits="userSpaceOnUse" xlink:href="#linearGradient3986"/><linearGradient id="linearGradient3794" x1="8" x2="8" y1="31" y2="23" gradientTransform="translate(-33.813333,-1.0666667)" gradientUnits="userSpaceOnUse" xlink:href="#linearGradient3994"/></defs><metadata id="metadata7"/><g id="layer4" style="display:inline"><path style="fill:#eaf2fd;fill-opacity:1;stroke:#000;stroke-width:.99999994000000003px;stroke-linecap:butt;stroke-linejoin:miter;stroke-opacity:1" id="path3198" d="m 20.444003,2.6266667 6.513998,0 c 1.204846,0 3.137841,0.049528 2.791713,4.8386332 l -9.305711,0 c 0,-4.8386332 0,-4.8386332 0,-4.8386332 z"/></g><g id="layer3" style="display:inline"><path style="fill:url(#linearGradient3992);fill-opacity:1;stroke:#000;stroke-width:.99999994000000003px;stroke-linecap:butt;stroke-linejoin:miter;stroke-opacity:1" id="path3195" d="m 7.006555,29.735916 0,-24.1931664 c 0,0 0,-2.9031799 2.7917135,-2.9031799 l 13.0279965,0 c 1.603974,0 1.377835,0 1.861142,0 2.791714,0 -0.112644,0.082028 0,2.9031799 0,0 -0.02758,11.5677894 0,17.4190794 0.02938,6.23321 0.05882,6.774087 -1.861142,6.774087 -6.203808,0 -9.615903,-3e-6 -15.81971,0 z"/></g><g id="layer2"><path style="fill:url(#linearGradient4000);fill-opacity:1;stroke:#000;stroke-width:1;stroke-linecap:round;stroke-linejoin:round;stroke-opacity:1;display:inline;stroke-miterlimit:4;stroke-dasharray:none" id="path3193-7" d="m 5.4183801,22.07152 c -0.9305711,0 -2.7917135,1.935454 -2.7917135,3.870907 0,1.34207 1.16348,3.878557 2.7917135,3.870907 l 16.4773139,-0.07742 c -0.930572,0 -2.791714,-2.046144 -2.791714,-3.870907 C 19.10398,22.961827 21,22 21,22 19.138857,22 7.2795225,22.07152 5.4183801,22.07152 z"/></g></svg>