<svg xmlns="http://www.w3.org/2000/svg" xmlns:svg="http://www.w3.org/2000/svg" xmlns:xlink="http://www.w3.org/1999/xlink" id="svg2458" width="32" height="32" version="1.0"><defs id="defs2460"><linearGradient id="linearGradient18283"><stop style="stop-color:#b3dff1;stop-opacity:1" id="stop18285" offset="0"/><stop style="stop-color:#f5f5f5;stop-opacity:1" id="stop18287" offset="1"/></linearGradient><linearGradient id="linearGradient18289" x1="6.088" x2="17.66" y1="14.588" y2="10.24" gradientUnits="userSpaceOnUse" xlink:href="#linearGradient18283"/></defs><metadata id="metadata7"/><g id="layer5" style="display:inline"><path style="fill:url(#linearGradient18289);fill-opacity:1;fill-rule:evenodd;stroke:#45719f;stroke-width:1.3660129299999999;stroke-linecap:round;stroke-linejoin:miter;stroke-miterlimit:4;stroke-opacity:1;stroke-dasharray:none" id="path17312" d="m 22.517579,13.277822 a 8.2462254,8.0976295 0 1 1 -16.4924506,0 8.2462254,8.0976295 0 1 1 16.4924506,0 z" transform="matrix(0.95811218,0,0,0.96428056,-2.7875308,-2.9552112)"/></g><g id="layer1" style="display:inline"><path style="fill:#a6a8a9;fill-opacity:1;fill-rule:evenodd;stroke:#37406d;stroke-width:.96199995;stroke-linecap:butt;stroke-linejoin:miter;stroke-miterlimit:4;stroke-opacity:1;stroke-dasharray:none" id="path3411" d="M 15.608372,18.55098 20.17229,23.63173 22,21.11486 18.073608,16.613819 z"/><path style="fill:#6371a4;fill-opacity:1;fill-rule:evenodd;stroke:#3d4975;stroke-width:1.13095403;stroke-linecap:butt;stroke-linejoin:miter;stroke-miterlimit:4;stroke-opacity:1;stroke-dasharray:none" id="path3413" d="m 18.090556,23.539926 1.466639,2.382869 2.799401,2.992204 3.285468,2.41503 3.231191,-2.753874 -1.744048,-3.538517 -2.594059,-3.167943 -2.059147,-1.967885 -4.385445,3.638116 z"/><path style="fill:none;stroke:#6874a2;stroke-width:3.99488853999999982;stroke-linecap:butt;stroke-miterlimit:4;stroke-opacity:1;stroke-dasharray:none" id="path2468" d="m 27.951913,18.068695 a 10.225221,9.2875366 0 1 1 -20.4504415,0 10.225221,9.2875366 0 1 1 20.4504415,0 z" transform="matrix(0.83916146,0,0,0.91470537,-3.8683577,-6.1917981)"/></g></svg>