<svg xmlns="http://www.w3.org/2000/svg" xmlns:svg="http://www.w3.org/2000/svg" xmlns:xlink="http://www.w3.org/1999/xlink" id="svg2" width="32" height="32" version="1.1"><defs id="defs4"><linearGradient id="linearGradient4573"><stop style="stop-color:#2165c4;stop-opacity:1" id="stop4575" offset="0"/><stop style="stop-color:#5e95e2;stop-opacity:1" id="stop4577" offset="1"/></linearGradient><linearGradient id="linearGradient4485"><stop id="stop4487" offset="0" style="stop-color:#f1bd45;stop-opacity:1"/><stop id="stop4489" offset="1" style="stop-color:#ffeebd;stop-opacity:1"/></linearGradient><linearGradient id="linearGradient5256"><stop style="stop-color:#cedcdd;stop-opacity:1" id="stop5258" offset="0"/><stop style="stop-color:#7199cb;stop-opacity:1" id="stop5260" offset="1"/></linearGradient><linearGradient id="linearGradient5222"><stop style="stop-color:#465178;stop-opacity:1" id="stop5224" offset="0"/><stop style="stop-color:#314552;stop-opacity:1" id="stop5226" offset="1"/></linearGradient><linearGradient id="linearGradient5194"><stop style="stop-color:#204492;stop-opacity:1" id="stop5196" offset="0"/><stop style="stop-color:#81a2d2;stop-opacity:1" id="stop5198" offset="1"/></linearGradient><linearGradient id="linearGradient5186"><stop style="stop-color:#eba34c;stop-opacity:1" id="stop5188" offset="0"/><stop style="stop-color:#f9f9f9;stop-opacity:1" id="stop5190" offset="1"/></linearGradient><linearGradient id="linearGradient3795"><stop style="stop-color:#c53143;stop-opacity:1" id="stop3797" offset="0"/><stop style="stop-color:#b8382b;stop-opacity:0" id="stop3799" offset="1"/></linearGradient><linearGradient id="linearGradient3728"><stop style="stop-color:#fa0c1e;stop-opacity:1" id="stop3730" offset="0"/><stop style="stop-color:#d9afb1;stop-opacity:0" id="stop3732" offset="1"/></linearGradient><linearGradient id="linearGradient3614"><stop style="stop-color:#e8220f;stop-opacity:1" id="stop3616" offset="0"/><stop style="stop-color:#ececec;stop-opacity:1" id="stop3618" offset="1"/></linearGradient><linearGradient id="linearGradient3602"><stop style="stop-color:#932626;stop-opacity:1" id="stop3604" offset="0"/><stop style="stop-color:#bc4343;stop-opacity:1" id="stop3606" offset="1"/></linearGradient><linearGradient id="linearGradient5262" x1="-5.897" x2="-5.573" y1="8.294" y2="4.055" gradientTransform="matrix(0.65143369,0,0,0.72465707,8.5653256,0.88669298)" gradientUnits="userSpaceOnUse" xlink:href="#linearGradient5256"/><linearGradient id="linearGradient5266" x1="-6.153" x2="-5.527" y1="7.333" y2="3.973" gradientTransform="matrix(0.56219622,0,0,0.55767089,7.7886026,8.071931)" gradientUnits="userSpaceOnUse" xlink:href="#linearGradient5256"/><linearGradient id="linearGradient5270" x1="-6.527" x2="-6.113" y1="3.44" y2=".187" gradientTransform="matrix(0.56219622,0,0,0.55767089,17.263483,11.641025)" gradientUnits="userSpaceOnUse" xlink:href="#linearGradient5256"/><linearGradient id="linearGradient5274" x1="-6.527" x2="-5.527" y1="9.093" y2="3.973" gradientTransform="translate(26.826667,5.3333334)" gradientUnits="userSpaceOnUse" xlink:href="#linearGradient5256"/><linearGradient id="linearGradient3593" x1="15.603" x2="14.704" y1="11.416" y2="5.631" gradientTransform="matrix(-0.86061684,-0.15090715,0.13376284,-0.97092167,26.431688,37.768288)" gradientUnits="userSpaceOnUse" xlink:href="#linearGradient3650"/><linearGradient id="linearGradient3650"><stop style="stop-color:#30cf38;stop-opacity:1" id="stop3652" offset="0"/><stop style="stop-color:#fcfcfe;stop-opacity:1" id="stop3654" offset="1"/></linearGradient><linearGradient id="linearGradient3656" x1="15.603" x2="14.704" y1="11.416" y2="5.631" gradientTransform="matrix(0.86061684,0.15090715,-0.13376284,0.97092167,5.6361914,-5.6778006)" gradientUnits="userSpaceOnUse" xlink:href="#linearGradient3650"/><linearGradient id="linearGradient2960"><stop style="stop-color:#449abb;stop-opacity:1" id="stop2962" offset="0"/><stop style="stop-color:#fcfcfe;stop-opacity:1" id="stop2964" offset="1"/></linearGradient><linearGradient id="linearGradient2968" x1="15.603" x2="14.704" y1="11.416" y2="5.631" gradientTransform="matrix(0.86061684,0.15090715,-0.13376284,0.97092167,6.2083117,-5.554955)" gradientUnits="userSpaceOnUse" xlink:href="#linearGradient3650"/><linearGradient id="linearGradient3000" x1="15.603" x2="14.704" y1="11.416" y2="5.631" gradientTransform="matrix(0.86061684,0.15090715,-0.13376284,0.97092167,6.2083117,-5.554955)" gradientUnits="userSpaceOnUse" xlink:href="#linearGradient3650"/><linearGradient id="linearGradient3003" x1="15.603" x2="14.704" y1="11.416" y2="5.631" gradientTransform="matrix(0.86061684,0.15090715,-0.13376284,0.97092167,6.2083117,-5.554955)" gradientUnits="userSpaceOnUse" xlink:href="#linearGradient3650"/><linearGradient id="linearGradient3006" x1="15.603" x2="14.704" y1="11.416" y2="5.631" gradientTransform="matrix(0.56466735,0.09622175,-0.08776439,0.61908121,14.227777,7.1986057)" gradientUnits="userSpaceOnUse" xlink:href="#linearGradient4485"/><linearGradient id="linearGradient4485-7"><stop id="stop4487-7" offset="0" style="stop-color:#f1bd45;stop-opacity:1"/><stop id="stop4489-5" offset="1" style="stop-color:#ffeebd;stop-opacity:1"/></linearGradient><linearGradient id="linearGradient4579" x1="20.594" x2="20.594" y1="13.137" y2="30.027" gradientUnits="userSpaceOnUse" xlink:href="#linearGradient4573"/></defs><metadata id="metadata7"/><g id="layer1"><path style="fill:url(#linearGradient4579);fill-opacity:1;stroke:#414a5b;stroke-width:.41006634;stroke-miterlimit:4;stroke-opacity:1;stroke-dasharray:none;display:inline" id="path4533-4" d="m 32.880467,20.200155 a 12.285981,12.948894 0 1 1 -24.5719619,0 12.285981,12.948894 0 1 1 24.5719619,0 z" transform="matrix(1.2589928,0,0,1.1808874,-9.8858242,-7.8082054)"/><path style="fill:#fff9f9;fill-opacity:1;stroke:none;display:inline" id="path2876-8" d="M 15.405667,4.9908058 C 14.416179,4.9696766 12.379939,5.1710089 11.394671,5.7347947 9.8182439,6.6368537 7.5180123,9.2006316 7.6657467,9.4004172 8.6617506,10.747354 8.966057,11.313207 8.966057,11.313207 c 0,0 1.374952,-1.764833 2.589367,-2.6024539 1.667647,-1.1502312 2.589472,-1.231399 4.429037,-0.9235739 2.441651,0.474329 3.754065,1.9989678 5.033,4.3613158 l -3.623759,3.181197 8.077962,0.846609 1.20792,-8.8252527 -3.422438,2.8989927 c 0,0 -1.361861,-2.0412957 -2.26485,-3.0016125 C 20.089308,6.288113 18.595909,5.5150929 17.242711,5.2217 16.611768,5.0849014 15.99936,5.003482 15.405667,4.9908058 z M 6.8747357,16.201955 5.6416514,25.027204 9.0640913,22.102557 c 0,0 1.3870247,2.066949 2.2900117,3.027266 0.902988,0.960317 2.371221,1.70768 3.72442,2.001075 1.682514,0.364796 3.932824,0.293737 5.509252,-0.60832 1.576428,-0.902058 4.29142,-3.594713 4.431666,-3.449519 0.265959,0.275342 -1.639098,-2.128892 -1.639098,-2.128892 0,0 -1.617589,1.764833 -2.832002,2.602455 -1.667647,1.15023 -2.372003,1.352277 -4.211568,1.044451 -2.441651,-0.47433 -3.728897,-1.998968 -5.007835,-4.361315 l 3.598594,-3.181194 -8.0527963,-0.846609 z"/></g></svg>