<svg xmlns="http://www.w3.org/2000/svg" xmlns:svg="http://www.w3.org/2000/svg" xmlns:xlink="http://www.w3.org/1999/xlink" id="svg2" width="32" height="32" version="1.1"><defs id="defs4"><linearGradient id="linearGradient3614"><stop style="stop-color:#cecece;stop-opacity:1" id="stop3616" offset="0"/><stop style="stop-color:#fbfbfb;stop-opacity:1" id="stop3618" offset="1"/></linearGradient><linearGradient id="linearGradient3691" x1="15.413" x2="15.413" y1="12.897" y2="31.086" gradientUnits="userSpaceOnUse" xlink:href="#linearGradient3614"/><linearGradient id="linearGradient3693" x1="15.413" x2="15.413" y1="2.234" y2="31.086" gradientUnits="userSpaceOnUse" xlink:href="#linearGradient3614"/><linearGradient id="linearGradient3710" x1="15.413" x2="15.941" y1="3.48" y2="18.884" gradientTransform="matrix(1.0688752,0,0,-1.1672542,-33.433021,42.207333)" gradientUnits="userSpaceOnUse" xlink:href="#linearGradient3614"/><linearGradient id="linearGradient3720" x1="24.437" x2="15.941" y1="3.485" y2="18.884" gradientTransform="matrix(1.0688752,0,0,-1.1672542,-33.433021,42.207333)" gradientUnits="userSpaceOnUse" xlink:href="#linearGradient3614"/></defs><metadata id="metadata7"/><g id="layer3" style="display:inline"><path style="fill:url(#linearGradient3691);fill-opacity:1;fill-rule:evenodd;stroke:url(#linearGradient3693);stroke-width:.90856528;stroke-linecap:butt;stroke-linejoin:miter;stroke-miterlimit:4;stroke-opacity:1;stroke-dasharray:none;stroke-dashoffset:0" id="path2820" d="m 29.173333,16.559999 a 13.76,12.613334 0 1 1 -27.5200003,0 13.76,12.613334 0 1 1 27.5200003,0 z" transform="matrix(1.0537791,0,0,-1.1495772,-0.30224808,35.097001)"/><text style="font-size:28px;font-style:normal;font-variant:normal;font-weight:700;font-stretch:normal;fill:gray;fill-opacity:1;stroke:none;font-family:Sans;-inkscape-font-specification:Adobe Courier Bold" id="text3613" x="7.52" y="25.76" xml:space="preserve"><tspan id="tspan3615" x="7.52" y="25.76" style="font-size:28px;font-style:normal;font-variant:normal;font-weight:700;font-stretch:normal;fill:gray;font-family:Sans;-inkscape-font-specification:Adobe Courier Bold">?</tspan></text></g><g id="layer4" style="display:inline"><path style="fill:none;stroke:#888;stroke-width:1.24076998000000005;stroke-linecap:butt;stroke-linejoin:miter;stroke-miterlimit:4;stroke-opacity:1;stroke-dasharray:none;stroke-dashoffset:0" id="path3786" d="m 30.186666,17.973333 a 13.973333,13.706667 0 1 1 -27.9466662,0 13.973333,13.706667 0 1 1 27.9466662,0 z" transform="matrix(1.0376908,0,0,1.0578794,-0.937761,-2.9536141)"/></g></svg>